<svg version="1.1" id="Layer_1" xmlns="http://www.w3.org/2000/svg" xmlns:xlink="http://www.w3.org/1999/xlink" x="0px" y="0px"
	 width="100%" viewBox="0 0 1024 1024" enable-background="new 0 0 1024 1024" xml:space="preserve">
<path fill="#07368C" opacity="1.000000" stroke="none" 
	d="
M576.000000,1025.000000 
	C384.000000,1025.000000 192.500000,1025.000000 1.000000,1025.000000 
	C1.000000,683.666687 1.000000,342.333344 1.000000,1.000000 
	C342.333344,1.000000 683.666687,1.000000 1025.000000,1.000000 
	C1025.000000,342.333344 1025.000000,683.666687 1025.000000,1025.000000 
	C875.500000,1025.000000 726.000000,1025.000000 576.000000,1025.000000 
M273.524292,497.742554 
	C279.958862,492.142822 286.393402,486.543060 293.284973,480.466919 
	C294.829926,478.970428 296.374878,477.473938 298.383484,475.485535 
	C300.613098,472.995697 302.842743,470.505890 305.142792,467.143127 
	C305.112183,465.106873 305.081604,463.070648 305.338074,460.272278 
	C305.446442,453.170258 305.554810,446.068268 305.808197,438.046326 
	C305.803528,433.009277 305.798859,427.972198 305.912933,422.015656 
	C305.951355,415.687073 305.999451,409.358551 306.025848,403.029938 
	C306.063782,393.927185 304.081940,391.936005 294.964569,391.133270 
	C293.702545,390.091797 292.440521,389.050323 290.227570,388.150787 
	C287.396271,388.109314 284.565063,388.038300 281.733673,388.030670 
	C210.101166,387.837708 138.468628,387.663574 66.836189,387.450256 
	C56.480129,387.419434 49.813450,393.629639 49.752682,404.029236 
	C49.619328,426.851501 49.647663,449.674805 49.644855,472.497681 
	C49.641724,497.986115 49.644234,523.474609 49.713131,548.962891 
	C49.738411,558.314392 55.092819,563.876953 63.725006,563.400391 
	C86.167740,562.161255 108.599060,560.715393 131.041901,559.478271 
	C162.295654,557.755432 193.555771,556.147644 225.226791,555.128418 
	C226.194580,556.854004 227.461029,558.479431 228.078720,560.322388 
	C230.824249,568.513855 233.383987,576.767639 235.396835,585.484497 
	C233.614746,585.495605 231.825943,585.612793 230.051651,585.500549 
	C218.526352,584.771729 207.004211,583.993103 194.860168,582.995422 
	C194.267502,581.661072 193.674835,580.326660 193.135132,578.197876 
	C192.048615,572.779480 190.962097,567.361145 189.784210,561.487061 
	C176.083878,562.192749 162.401535,562.897461 148.375839,563.619873 
	C148.375839,567.851257 148.375839,571.477112 148.204071,575.908752 
	C147.787781,578.290344 147.371490,580.671997 146.115616,583.048584 
	C137.245712,584.248108 128.365509,585.376953 119.508751,586.666809 
	C110.479607,587.981689 101.462242,589.386841 92.460564,590.878296 
	C83.952751,592.287842 75.091904,591.047119 66.712639,593.787659 
	C67.499062,594.841431 68.225960,595.226440 68.997025,595.473694 
	C70.738258,596.032349 72.482224,596.602356 74.258354,597.029419 
	C107.342842,604.984863 141.042343,608.056458 174.933014,608.825378 
	C189.171646,609.148499 203.513687,608.294128 217.696396,606.862549 
	C236.151260,604.999634 254.510010,602.137390 272.876221,599.471619 
	C278.607208,598.639771 284.182251,596.658325 289.920410,595.984070 
	C292.549438,595.675232 295.363129,597.631592 298.157684,597.908508 
	C306.720245,598.756897 317.551544,591.322327 320.476044,582.908325 
	C321.454956,580.091858 320.567688,578.382080 317.347565,577.281860 
	C307.322601,567.469604 297.297638,557.657349 287.016632,547.594482 
	C298.054382,541.868225 308.719238,536.335449 319.907898,530.530945 
	C317.817383,529.363892 316.391998,528.568115 314.759644,527.150208 
	C312.392365,524.700073 310.433350,521.515625 307.584473,519.931763 
	C297.314606,514.222046 286.721619,509.096039 276.312836,503.631195 
	C274.700012,502.784485 273.411957,501.319214 272.005585,499.584625 
	C272.013031,499.217712 272.020508,498.850800 272.423828,498.143402 
	C272.559906,498.035278 272.696014,497.927124 273.524292,497.742554 
M776.676147,524.489563 
	C786.637878,524.542236 796.599915,524.559753 806.561035,524.670654 
	C809.283203,524.700989 810.416931,523.639404 810.374695,520.841370 
	C810.199402,509.226929 810.155640,497.610474 810.221741,485.164764 
	C810.238953,483.205536 810.256165,481.246338 810.603638,478.915222 
	C810.767090,478.626251 810.908569,478.326935 811.960693,477.964935 
	C822.280945,477.819397 832.601196,477.673859 843.849548,477.738892 
	C851.276184,477.738892 858.702820,477.738892 866.511963,477.738892 
	C866.623962,480.284485 866.766418,482.068848 866.770813,483.853546 
	C866.800537,495.986145 866.714478,508.120300 866.923218,520.249512 
	C866.948669,521.729370 868.474609,524.435730 869.359558,524.458496 
	C880.588318,524.747253 891.827087,524.648560 903.692993,524.648560 
	C903.692993,515.170105 903.757996,506.234161 903.676575,497.299561 
	C903.575256,486.186371 903.352966,475.074280 903.319458,463.037262 
	C903.331360,442.316437 903.343262,421.595642 903.521057,400.439484 
	C903.540894,400.107452 903.437256,399.819885 903.112854,398.740997 
	C895.038635,398.494659 886.965393,398.210693 878.889893,398.018097 
	C874.968262,397.924561 871.042664,398.001923 866.633911,398.001923 
	C866.633911,415.422821 866.633911,432.024933 866.633911,448.742004 
	C865.384094,448.979797 864.596619,449.259857 863.809021,449.260376 
	C847.318237,449.271515 830.826965,449.183777 814.336975,449.292938 
	C811.010620,449.314941 810.538696,447.690186 810.552307,444.982605 
	C810.620300,431.490479 810.613464,417.997864 810.579956,404.505554 
	C810.574829,402.432678 810.293640,400.360504 810.140381,398.290955 
	C798.302673,398.290955 787.044556,398.290955 775.434387,398.290955 
	C775.434387,429.708649 775.434387,460.808990 775.254578,492.844604 
	C775.277466,502.895599 775.300293,512.946594 775.276733,523.479431 
	C775.362793,523.829529 775.580444,524.049500 776.676147,524.489563 
M389.498840,501.602203 
	C387.719299,501.493805 385.939758,501.385406 383.937561,501.263458 
	C383.937561,490.876984 383.937561,480.828522 383.937561,470.284790 
	C399.240082,470.284790 414.155792,470.284790 429.230347,470.284790 
	C429.230347,463.225464 429.230347,456.667328 429.230347,449.404816 
	C413.906433,449.404816 398.861420,449.404816 383.675720,449.404816 
	C383.675720,439.287933 383.675720,429.879578 383.675720,420.003937 
	C400.665131,420.003937 417.247498,420.003937 434.050598,420.003937 
	C434.050598,412.602631 434.050598,405.673828 434.050598,398.729736 
	C409.294678,398.729736 384.785858,398.729736 360.370972,398.729736 
	C360.370972,440.416901 360.370972,481.627075 360.370972,522.855591 
	C385.494659,522.855591 410.223480,522.855591 435.041534,522.855591 
	C435.041534,515.753601 435.041534,508.982239 435.041534,501.617004 
	C420.048279,501.617004 405.272705,501.617004 389.498840,501.602203 
M654.200867,398.932831 
	C654.200867,440.163086 654.200867,481.393341 654.200867,522.672363 
	C662.216797,522.672363 669.508118,522.672363 677.443359,522.672363 
	C677.443359,508.982788 677.443359,495.460785 677.443359,480.464294 
	C679.474426,482.817017 680.525146,484.000488 681.539429,485.214447 
	C691.148926,496.715118 700.722107,508.246368 710.398499,519.690369 
	C711.496338,520.988831 713.136292,522.657104 714.572937,522.704712 
	C723.116394,522.988037 731.674011,522.844727 741.443542,522.844727 
	C727.975647,506.620880 715.267883,491.312653 702.557800,476.001678 
	C714.561768,462.793640 726.367798,449.803406 738.995544,435.909058 
	C729.959717,435.909058 722.204224,435.709686 714.471008,436.037109 
	C712.302979,436.128906 709.618103,437.228241 708.163086,438.790192 
	C699.084534,448.536163 690.295227,458.551331 681.388000,468.457428 
	C680.276855,469.693207 679.035583,470.811981 677.011230,472.822632 
	C677.011230,446.321228 677.011230,421.249268 677.011230,395.834869 
	C669.997375,395.834869 663.353577,395.756470 656.716492,395.931732 
	C655.864319,395.954224 655.046936,397.294678 654.200867,398.932831 
M591.596008,501.090973 
	C581.229858,492.615662 578.373596,476.716827 586.029724,465.037842 
	C588.564819,461.170715 593.043518,457.806366 597.378296,456.043274 
	C607.958435,451.740051 617.776062,455.529053 627.087952,461.407501 
	C630.379456,455.792908 633.458923,450.540070 636.637268,445.118500 
	C629.130432,438.528534 620.506592,435.557068 611.350464,434.547607 
	C591.694763,432.380554 575.175232,438.394257 564.783264,455.913208 
	C555.094177,472.247314 555.136902,489.512482 565.239197,505.585754 
	C576.386108,523.321106 594.242981,526.996277 613.454773,524.409912 
	C620.764404,523.425842 627.711426,519.491760 634.716736,516.639343 
	C637.248291,515.608521 637.662964,513.610168 636.099365,511.001617 
	C633.384094,506.471680 631.023560,501.729095 628.367554,496.803711 
	C617.198608,506.422852 605.232910,508.416748 591.596008,501.090973 
M483.635681,460.909607 
	C490.306030,456.647003 497.691437,456.661835 505.521759,457.677124 
	C506.634735,450.072876 507.701172,442.786652 508.784149,435.387329 
	C493.772766,432.330200 483.319580,439.332764 473.486328,449.363892 
	C472.895813,444.457794 472.410736,440.427521 471.945129,436.559204 
	C464.676758,436.559204 457.929535,436.559204 451.054443,436.559204 
	C451.054443,465.592163 451.054443,494.187347 451.054443,523.014282 
	C458.703888,523.014282 466.129517,523.014282 473.776917,523.014282 
	C473.776917,509.113892 473.971069,495.474884 473.705780,481.844788 
	C473.540649,473.362427 476.762756,466.726837 483.635681,460.909607 
M543.972961,455.500610 
	C543.972961,449.237213 543.972961,442.973846 543.972961,436.669617 
	C536.141907,436.669617 528.946838,436.669617 521.465149,436.669617 
	C521.465149,465.633423 521.465149,494.188965 521.465149,523.007324 
	C528.987000,523.007324 536.251648,523.007324 543.970093,523.007324 
	C543.970093,500.712830 543.970093,478.606567 543.972961,455.500610 
M520.601135,418.609192 
	C524.947937,424.450287 530.442627,426.532074 536.612732,424.675568 
	C542.118164,423.019012 545.972595,418.156708 546.047607,412.532135 
	C546.120056,407.100494 543.982239,402.829865 538.963257,400.344940 
	C533.837769,397.807312 527.420044,398.463379 523.538208,402.052277 
	C518.714417,406.512054 517.716370,411.890747 520.601135,418.609192 
M388.082397,579.872314 
	C389.635345,573.305908 391.188293,566.739441 392.780334,560.007629 
	C389.047729,559.110718 387.338593,559.958801 386.751556,563.471558 
	C386.038696,567.737549 384.765015,571.909851 383.733948,576.122681 
	C383.393066,576.123352 383.052185,576.124084 382.711304,576.124756 
	C381.423798,570.717407 380.136261,565.310059 378.847626,559.898132 
	C376.972015,559.898132 375.360687,559.898132 373.565460,559.898132 
	C372.257080,565.136108 370.997864,570.177246 369.738678,575.218323 
	C367.783630,571.301575 366.690338,567.371887 366.006531,563.372131 
	C365.366394,559.627869 363.579132,558.651123 359.893219,560.215271 
	C361.957275,569.093567 364.009521,577.920898 366.039459,586.652344 
	C368.396271,586.652344 370.180420,586.652344 372.255432,586.652344 
	C373.429260,581.303528 374.576965,576.073914 375.724670,570.844299 
	C377.544983,574.513123 378.441345,578.038208 379.041809,581.613098 
	C379.772156,585.961121 381.584717,588.328735 386.517120,586.332275 
	C386.980469,584.512512 387.468170,582.597107 388.082397,579.872314 
M817.277832,571.520264 
	C817.277832,576.477295 817.277832,581.434387 817.277832,586.186340 
	C820.869385,587.492126 822.212402,586.615173 822.063904,583.305603 
	C821.901489,579.685120 822.027039,576.051758 822.027039,572.424011 
	C824.001892,575.002319 824.693054,577.727722 825.906128,580.196777 
	C826.398743,581.199341 828.006714,582.134338 829.145264,582.181580 
	C829.999634,582.217041 831.308899,580.952026 831.725281,579.972595 
	C832.757019,577.545959 833.392883,574.950989 834.187866,572.423706 
	C834.570862,572.511963 834.953918,572.600159 835.336914,572.688416 
	C835.336914,577.301819 835.336914,581.915161 835.336914,586.898376 
	C837.152161,586.773499 838.536499,586.678284 839.822998,586.589783 
	C839.822998,577.411621 839.822998,568.664368 839.822998,560.038452 
	C835.331970,558.563782 833.001770,560.049561 831.966492,564.300903 
	C831.234192,567.308777 829.976562,570.188782 828.662415,573.961304 
	C827.220093,569.971558 825.894836,566.938049 825.037659,563.777710 
	C823.911804,559.626770 821.541321,558.588745 817.277039,560.199768 
	C817.277039,563.607056 817.277039,567.072144 817.277832,571.520264 
M538.133728,566.239990 
	C536.243591,563.219727 536.288025,557.730164 530.018921,560.087830 
	C530.018921,568.808716 530.018921,577.575684 530.018921,586.514160 
	C531.525269,586.514160 532.757629,586.514160 534.770874,586.514160 
	C534.770874,581.624023 534.770874,577.002563 534.770874,572.381104 
	C537.353455,575.390808 538.844482,578.501038 540.344910,581.606750 
	C541.907654,584.841553 543.065979,588.760193 548.183472,586.275635 
	C548.183472,577.472717 548.183472,568.692322 548.183472,559.737915 
	C546.662537,559.737915 545.404114,559.737915 543.961670,559.737915 
	C543.715637,564.894409 543.479187,569.850891 543.242676,574.807312 
	C542.925171,574.827942 542.607605,574.848572 542.290039,574.869202 
	C541.004272,572.225220 539.718445,569.581299 538.133728,566.239990 
M606.878540,576.676697 
	C607.872375,578.784607 609.048950,580.828064 609.819153,583.014771 
	C611.118591,586.703857 613.380859,587.813293 616.981567,586.389404 
	C616.981567,577.470642 616.981567,568.698975 616.981567,560.022034 
	C613.635925,558.839355 612.421814,559.849915 612.580444,563.119202 
	C612.768738,567.001465 612.624695,570.899963 612.624695,574.791382 
	C612.209106,574.851929 611.793579,574.912476 611.377991,574.973022 
	C609.580811,571.148254 607.647278,567.380005 606.028442,563.481201 
	C604.676697,560.225647 602.836243,558.562439 599.128052,560.215942 
	C599.128052,568.951660 599.128052,577.711792 599.128052,586.467407 
	C603.034851,586.498840 603.137878,586.501892 603.225525,583.515137 
	C603.334473,579.800720 603.251648,576.080566 603.251648,572.362915 
	C603.718018,572.302734 604.184448,572.242493 604.650818,572.182312 
	C605.288574,573.442688 605.926331,574.703064 606.878540,576.676697 
M887.909790,580.326294 
	C887.909790,573.555725 887.909790,566.785156 887.909790,559.584229 
	C886.067383,559.680115 884.693359,559.751648 882.801025,559.850098 
	C882.801025,565.084778 882.801025,569.892273 882.801025,574.699829 
	C880.032227,571.003967 877.991516,567.237976 876.374207,563.298218 
	C875.009766,559.974182 873.159790,558.524902 869.545105,560.128784 
	C869.545105,568.945984 869.545105,577.698120 869.545105,586.430176 
	C872.634094,587.407898 874.155762,586.828857 873.982422,583.399780 
	C873.785522,579.505188 873.936890,575.593018 873.936890,571.688538 
	C876.912598,575.382568 879.074097,579.219421 880.705933,583.269653 
	C882.104919,586.741577 884.102112,587.731628 887.649475,586.285034 
	C887.738281,584.554565 887.822571,582.910889 887.909790,580.326294 
M486.487640,559.546875 
	C484.583344,559.546875 482.679016,559.546875 480.907959,559.546875 
	C480.907959,569.059814 480.907959,577.811584 480.907959,586.734131 
	C482.568176,586.734131 483.854675,586.734131 485.722900,586.734131 
	C485.722900,583.154541 485.722900,579.728516 485.722900,576.288269 
	C490.855591,575.595276 490.473755,579.766418 491.645569,582.056274 
	C493.243622,585.178955 494.447540,588.207886 499.084717,586.546814 
	C497.548706,582.935425 496.013824,579.326721 494.440521,575.627563 
	C498.780090,572.506531 499.305573,568.269592 497.603394,563.958130 
	C495.807007,559.408142 491.430725,559.536682 486.487640,559.546875 
M430.319366,586.861450 
	C434.225281,586.878723 438.675720,586.902832 439.845825,582.441589 
	C440.646088,579.390320 439.439636,575.812805 439.095734,572.096741 
	C439.238983,569.606201 440.527191,565.935120 439.269012,563.692688 
	C438.067444,561.551147 434.331970,560.399658 431.494019,559.730774 
	C428.727814,559.078857 425.687683,559.589111 422.708008,559.589111 
	C422.708008,569.071289 422.708008,577.793274 422.708008,586.860962 
	C425.151001,586.860962 427.283386,586.860962 430.319366,586.861450 
M635.613770,586.543701 
	C643.554199,584.877563 643.800964,577.169617 642.074463,566.188354 
	C641.107483,560.037415 634.856201,558.063171 625.071106,559.968994 
	C625.071106,568.818909 625.071106,577.682739 625.071106,586.715576 
	C628.525024,586.715576 631.661011,586.715576 635.613770,586.543701 
M775.534668,586.791870 
	C782.371094,587.462769 786.257751,585.886658 786.969055,580.983643 
	C787.697510,575.961365 787.692627,570.687439 787.032837,565.651550 
	C786.419983,560.974243 782.370605,558.773315 777.295044,559.169617 
	C772.199463,559.567505 769.284546,562.291992 768.991272,567.344482 
	C768.779724,570.989319 768.921387,574.657288 768.971191,578.314026 
	C769.026672,582.391052 770.724426,585.347107 775.534668,586.791870 
M520.645142,561.857971 
	C513.539673,556.843689 505.774536,558.781433 504.684967,566.242676 
	C504.000641,570.928711 504.351532,575.867859 504.935486,580.607605 
	C505.484924,585.067322 509.008484,586.831787 513.203308,587.075989 
	C517.598816,587.331909 521.763245,585.852051 522.560974,581.375854 
	C523.677856,575.109192 524.636780,568.520081 520.645142,561.857971 
M677.812378,575.310425 
	C677.790649,572.815063 677.970459,570.297852 677.702148,567.829285 
	C677.246155,563.633850 675.108093,560.505249 670.728088,559.844177 
	C667.356628,559.335388 663.892395,559.441589 660.374390,559.269653 
	C660.374390,568.827209 660.374390,577.703186 660.374390,586.531128 
	C673.565674,587.897339 677.311584,585.619995 677.812378,575.310425 
M733.696045,567.575745 
	C734.042175,559.500122 740.967773,566.397339 744.012390,562.017578 
	C743.557007,561.481384 742.741821,559.627258 741.788757,559.553406 
	C737.573181,559.226868 733.318054,559.412170 728.974731,559.412170 
	C728.974731,568.833313 728.974731,577.592224 728.974731,586.604858 
	C734.031067,586.604858 738.786682,586.604858 743.731506,586.604858 
	C743.731506,585.328857 743.731506,584.140503 743.731506,582.453491 
	C740.343201,582.453491 737.268860,582.453491 734.086731,582.453491 
	C734.086731,579.853577 734.086731,577.756470 734.086731,575.485229 
	C736.939026,575.278809 739.543701,575.090393 742.096497,574.905701 
	C743.266174,571.796692 742.177246,570.965515 739.262390,570.764282 
	C737.372559,570.633789 735.563965,569.327515 733.696045,567.575745 
M847.345947,583.153320 
	C847.041077,585.807373 847.858337,587.184814 850.891418,586.916748 
	C853.868225,586.653503 856.889038,586.714722 859.881287,586.844910 
	C863.317078,586.994324 863.274902,585.280701 862.398132,582.794067 
	C859.033447,582.639465 855.800171,582.490845 852.677490,582.347290 
	C852.677490,579.648254 852.677490,577.589355 852.677490,576.262634 
	C855.204956,573.455261 861.242188,578.210266 861.072510,571.132507 
	C858.006165,570.936462 855.439636,570.772461 852.844482,570.606567 
	C852.844482,568.187866 852.844482,566.261963 852.844482,563.700989 
	C855.585266,563.700989 858.054626,563.862915 860.480896,563.610168 
	C861.293579,563.525574 861.996033,562.383301 862.748901,561.724487 
	C862.075989,561.003906 861.428894,559.690063 860.725952,559.659546 
	C856.324585,559.467957 851.910706,559.562744 847.338684,559.562744 
	C847.338684,567.575989 847.338684,574.898376 847.345947,583.153320 
M399.337097,572.508423 
	C399.337097,577.244873 399.337097,581.981323 399.337097,586.864685 
	C404.305176,586.864685 408.296661,586.729614 412.274475,586.904602 
	C415.896301,587.063904 415.343536,585.100464 414.812500,582.366028 
	C411.408966,582.366028 408.172974,582.366028 404.761292,582.366028 
	C404.761292,579.758301 404.761292,577.674072 404.761292,575.380005 
	C407.683167,575.243103 410.310669,575.119934 413.185059,574.985229 
	C413.236908,573.890015 413.489807,572.162109 413.295410,572.110229 
	C410.567841,571.382263 407.779266,570.882812 405.011719,570.339417 
	C405.011719,568.283081 405.011719,566.226746 405.011719,564.226440 
	C414.835327,563.227234 414.835327,563.227234 414.537750,559.815308 
	C409.627686,559.815308 404.710388,559.815308 399.336365,559.815308 
	C399.336365,563.932556 399.336365,567.726318 399.337097,572.508423 
M693.334412,563.855225 
	C699.790955,563.835266 699.790955,563.835266 699.221741,559.714478 
	C694.334900,559.714478 689.440735,559.714478 684.546875,559.714478 
	C684.546875,568.855530 684.546875,577.605408 684.546875,586.288330 
	C696.431213,588.128113 699.889282,587.310425 699.000366,582.503296 
	C695.997803,582.503296 692.901611,582.503296 689.520996,582.503296 
	C689.520996,579.955078 689.520996,577.900085 689.520996,575.514038 
	C692.361511,575.326965 694.954773,575.156189 697.745850,574.972412 
	C697.745850,573.538635 697.745850,572.300110 697.745850,571.031616 
	C694.891846,570.843750 692.309692,570.673767 689.157837,570.466309 
	C690.317688,567.827087 686.871521,563.965820 693.334412,563.855225 
M591.551331,559.888733 
	C586.659363,559.888733 581.767395,559.888733 576.898315,559.888733 
	C576.898315,568.922363 576.898315,577.782471 576.898315,586.870300 
	C581.153442,586.870300 584.979187,586.687622 588.778931,586.923218 
	C592.364624,587.145569 592.599426,585.521240 591.652100,582.486572 
	C588.477539,582.486572 585.375488,582.486572 581.927368,582.486572 
	C581.927368,579.931335 581.927368,577.710632 581.927368,575.017700 
	C584.913696,575.017700 587.653748,575.017700 590.403503,575.017700 
	C590.274170,571.718994 590.274170,571.718994 582.058350,570.353760 
	C582.058350,568.330627 582.058350,566.276550 582.058350,563.722778 
	C584.628296,563.722778 586.988708,564.041809 589.187988,563.584961 
	C590.249756,563.364441 591.008240,561.684204 591.551331,559.888733 
M704.521606,562.329102 
	C706.681946,570.483765 708.842285,578.638367 711.235596,587.672363 
	C713.571594,586.700745 716.562622,586.336609 716.920776,585.166626 
	C719.465088,576.854126 721.470703,568.376831 723.638672,559.987671 
	C719.918030,558.924377 718.383972,559.751038 717.774658,563.067200 
	C716.906189,567.794067 715.439453,572.411133 714.228333,577.075073 
	C712.098083,571.872925 710.933594,566.852356 709.491211,561.912842 
	C709.207825,560.942383 707.899902,559.729370 706.974670,559.647888 
	C706.130920,559.573425 705.165100,560.882446 704.521606,562.329102 
M799.106506,583.565186 
	C799.106506,581.463684 799.106506,579.362122 799.106506,577.181885 
	C801.069092,577.048706 802.396423,577.010864 803.710938,576.860229 
	C808.910217,576.264282 811.558044,573.381287 811.591736,568.333679 
	C811.627014,563.060120 808.841248,559.923767 803.454285,559.536560 
	C800.396423,559.316833 797.309875,559.496887 794.404602,559.496887 
	C794.404602,569.066162 794.404602,577.814148 794.404602,586.562134 
	C794.800781,586.855469 795.197021,587.148865 795.593201,587.442261 
	C796.757202,586.439087 797.921204,585.435974 799.106506,583.565186 
M295.639435,492.196777 
	C292.982544,494.142151 290.325623,496.087494 287.657532,498.041077 
	C290.954956,502.106628 290.965454,502.122528 294.421936,499.843109 
	C298.307556,497.280640 302.146912,494.647491 306.050903,492.113708 
	C312.133606,488.165894 318.253845,484.275970 324.746185,480.112671 
	C323.086578,477.872772 321.863617,476.222229 320.452179,474.317261 
	C312.093842,480.341370 304.158600,486.060547 295.639435,492.196777 
M473.487854,559.976196 
	C468.608887,559.737610 463.729889,559.499023 458.731140,559.254578 
	C458.731140,568.944580 458.731140,577.789368 458.731140,586.743042 
	C460.460358,586.743042 461.746735,586.743042 463.660706,586.743042 
	C463.660706,582.996216 463.660706,579.430420 463.660706,577.362244 
	C466.329956,573.420471 472.519165,578.195312 472.929352,570.868042 
	C469.355927,570.868042 466.623901,570.868042 463.975861,570.868042 
	C463.975861,568.261963 463.975861,566.205383 463.975861,563.843567 
	C466.653870,563.843567 469.021851,564.160217 471.229950,563.703674 
	C472.260284,563.490662 472.981110,561.780701 473.487854,559.976196 
M906.858215,559.523438 
	C902.249817,559.523438 897.641357,559.523438 892.962646,559.523438 
	C891.263550,565.704956 896.490967,563.002869 899.036865,564.631836 
	C899.036865,571.648804 899.036865,579.045044 899.036865,586.588196 
	C900.951355,586.588196 902.299683,586.588196 904.211731,586.588196 
	C904.211731,578.882874 904.211731,571.518982 904.211731,564.146912 
	C906.508301,563.837891 908.251038,563.603394 909.993774,563.368896 
	C910.253906,562.945312 910.514038,562.521729 910.774170,562.098083 
	C909.744751,561.246277 908.715393,560.394409 906.858215,559.523438 
M319.478241,507.744720 
	C325.331940,506.881073 331.185638,506.017426 337.360657,505.106384 
	C336.882599,502.820404 336.520538,501.089172 336.063080,498.901825 
	C324.377289,501.296234 313.020142,503.623260 301.662964,505.950317 
	C301.612732,506.640015 301.562500,507.329712 301.512268,508.019409 
	C303.431915,508.511963 305.377106,509.493042 307.265778,509.394135 
	C311.061493,509.195312 314.826385,508.407440 319.478241,507.744720 
M559.914307,572.803467 
	C559.914307,577.407349 559.914307,582.011292 559.914307,587.008240 
	C561.975403,586.778564 563.346069,586.625854 565.060547,586.434814 
	C565.060547,578.736328 565.060547,571.443481 565.060547,564.029053 
	C567.210571,563.891663 568.975159,563.778870 570.659058,563.671265 
	C571.731201,560.789673 571.326782,559.320740 568.044312,559.445740 
	C564.386475,559.584900 560.712891,559.470032 557.051941,559.322083 
	C553.394958,559.174316 552.634949,560.618713 554.168457,563.652283 
	C556.155029,563.809692 557.914490,563.949036 559.917236,564.107727 
	C559.917236,566.964355 559.917236,569.443054 559.914307,572.803467 
M755.788879,581.432129 
	C755.788879,574.324646 755.788879,567.217224 755.788879,559.807373 
	C753.829468,559.807373 752.433167,559.807373 750.983276,559.807373 
	C750.983276,568.846863 750.983276,577.726196 750.983276,586.659912 
	C755.804688,586.659912 760.253174,586.659912 765.017456,586.659912 
	C764.905396,585.224182 764.812317,584.031921 764.723206,582.889893 
	C761.681335,582.636963 759.040161,582.417358 755.788879,581.432129 
z"/>
<path fill="#FAFBFD" opacity="1.000000" stroke="none" 
	d="
M224.813156,554.490601 
	C193.555771,556.147644 162.295654,557.755432 131.041901,559.478271 
	C108.599060,560.715393 86.167740,562.161255 63.725006,563.400391 
	C55.092819,563.876953 49.738411,558.314392 49.713131,548.962891 
	C49.644234,523.474609 49.641724,497.986115 49.644855,472.497681 
	C49.647663,449.674805 49.619328,426.851501 49.752682,404.029236 
	C49.813450,393.629639 56.480129,387.419434 66.836189,387.450256 
	C138.468628,387.663574 210.101166,387.837708 281.733673,388.030670 
	C284.565063,388.038300 287.396271,388.109314 290.444489,388.429230 
	C275.799164,389.922791 260.936920,391.137909 245.625473,392.290527 
	C242.780304,392.469269 240.384323,392.710480 237.617889,392.858154 
	C236.497375,392.864441 235.747330,392.964264 234.549683,393.000336 
	C224.791504,393.399475 215.485855,394.054596 206.169556,394.292358 
	C162.901184,395.396606 119.631393,396.458313 76.358521,397.363647 
	C65.538353,397.590027 64.013176,398.795990 64.004784,409.695282 
	C63.974525,448.989899 63.953381,488.284546 63.926193,527.579163 
	C63.920986,535.109192 66.234520,537.238953 73.928085,536.896057 
	C104.358757,535.539490 134.791000,534.217834 165.221390,532.855103 
	C182.510513,532.080872 199.797195,531.252197 217.290619,530.551514 
	C217.496246,530.654907 217.911911,530.456970 218.259888,530.636353 
	C220.909393,537.275757 223.210953,543.735840 225.517395,550.561462 
	C225.285904,552.114929 225.049530,553.302734 224.813156,554.490601 
z"/>
<path fill="#37DAF6" opacity="1.000000" stroke="none" 
	d="
M842.921448,477.528381 
	C832.601196,477.673859 822.280945,477.819397 811.249634,478.114319 
	C810.450134,478.604858 810.361755,478.945984 810.273376,479.287109 
	C810.256165,481.246338 810.238953,483.205536 809.700134,485.578430 
	C806.059509,486.411743 802.918579,486.710999 799.825806,487.274567 
	C791.684143,488.758148 783.563416,490.356598 775.434387,491.909302 
	C775.434387,460.808990 775.434387,429.708649 775.434387,398.290955 
	C787.044556,398.290955 798.302673,398.290955 810.140381,398.290955 
	C810.293640,400.360504 810.574829,402.432678 810.579956,404.505554 
	C810.613464,417.997864 810.620300,431.490479 810.552307,444.982605 
	C810.538696,447.690186 811.010620,449.314941 814.336975,449.292938 
	C830.826965,449.183777 847.318237,449.271515 863.809021,449.260376 
	C864.596619,449.259857 865.384094,448.979797 866.633911,448.742004 
	C866.633911,432.024933 866.633911,415.422821 866.633911,398.001923 
	C871.042664,398.001923 874.968262,397.924561 878.889893,398.018097 
	C886.965393,398.210693 895.038635,398.494659 903.129272,399.381470 
	C903.140259,400.324768 903.210022,400.609070 903.355164,400.874817 
	C903.343262,421.595642 903.331360,442.316437 902.839600,463.530884 
	C883.827332,467.689484 865.287659,471.318298 846.777466,475.091980 
	C845.384460,475.375916 844.201904,476.692078 842.921448,477.528381 
z"/>
<path fill="#FBFCFD" opacity="1.000000" stroke="none" 
	d="
M389.997986,501.609619 
	C405.272705,501.617004 420.048279,501.617004 435.041534,501.617004 
	C435.041534,508.982239 435.041534,515.753601 435.041534,522.855591 
	C410.223480,522.855591 385.494659,522.855591 360.370972,522.855591 
	C360.370972,481.627075 360.370972,440.416901 360.370972,398.729736 
	C384.785858,398.729736 409.294678,398.729736 434.050598,398.729736 
	C434.050598,405.673828 434.050598,412.602631 434.050598,420.003937 
	C417.247498,420.003937 400.665131,420.003937 383.675720,420.003937 
	C383.675720,429.879578 383.675720,439.287933 383.675720,449.404816 
	C398.861420,449.404816 413.906433,449.404816 429.230347,449.404816 
	C429.230347,456.667328 429.230347,463.225464 429.230347,470.284790 
	C414.155792,470.284790 399.240082,470.284790 383.937561,470.284790 
	C383.937561,480.828522 383.937561,490.876984 383.937561,501.263458 
	C385.939758,501.385406 387.719299,501.493805 389.997986,501.609619 
z"/>
<path fill="#FAFBFD" opacity="1.000000" stroke="none" 
	d="
M654.207153,398.478699 
	C655.046936,397.294678 655.864319,395.954224 656.716492,395.931732 
	C663.353577,395.756470 669.997375,395.834869 677.011230,395.834869 
	C677.011230,421.249268 677.011230,446.321228 677.011230,472.822632 
	C679.035583,470.811981 680.276855,469.693207 681.388000,468.457428 
	C690.295227,458.551331 699.084534,448.536163 708.163086,438.790192 
	C709.618103,437.228241 712.302979,436.128906 714.471008,436.037109 
	C722.204224,435.709686 729.959717,435.909058 738.995544,435.909058 
	C726.367798,449.803406 714.561768,462.793640 702.557800,476.001678 
	C715.267883,491.312653 727.975647,506.620880 741.443542,522.844727 
	C731.674011,522.844727 723.116394,522.988037 714.572937,522.704712 
	C713.136292,522.657104 711.496338,520.988831 710.398499,519.690369 
	C700.722107,508.246368 691.148926,496.715118 681.539429,485.214447 
	C680.525146,484.000488 679.474426,482.817017 677.443359,480.464294 
	C677.443359,495.460785 677.443359,508.982788 677.443359,522.672363 
	C669.508118,522.672363 662.216797,522.672363 654.200867,522.672363 
	C654.200867,481.393341 654.200867,440.163086 654.207153,398.478699 
z"/>
<path fill="#FAFBFD" opacity="1.000000" stroke="none" 
	d="
M591.898560,501.310852 
	C605.232910,508.416748 617.198608,506.422852 628.367554,496.803711 
	C631.023560,501.729095 633.384094,506.471680 636.099365,511.001617 
	C637.662964,513.610168 637.248291,515.608521 634.716736,516.639343 
	C627.711426,519.491760 620.764404,523.425842 613.454773,524.409912 
	C594.242981,526.996277 576.386108,523.321106 565.239197,505.585754 
	C555.136902,489.512482 555.094177,472.247314 564.783264,455.913208 
	C575.175232,438.394257 591.694763,432.380554 611.350464,434.547607 
	C620.506592,435.557068 629.130432,438.528534 636.637268,445.118500 
	C633.458923,450.540070 630.379456,455.792908 627.087952,461.407501 
	C617.776062,455.529053 607.958435,451.740051 597.378296,456.043274 
	C593.043518,457.806366 588.564819,461.170715 586.029724,465.037842 
	C578.373596,476.716827 581.229858,492.615662 591.898560,501.310852 
z"/>
<path fill="#082B75" opacity="1.000000" stroke="none" 
	d="
M195.481049,583.230774 
	C207.004211,583.993103 218.526352,584.771729 230.051651,585.500549 
	C231.825943,585.612793 233.614746,585.495605 236.057220,585.171265 
	C237.721161,583.331848 238.552780,581.646545 239.776917,580.324707 
	C240.981812,579.023560 242.584625,578.090942 244.309235,577.207947 
	C246.420517,582.778442 248.235382,588.137634 250.224091,594.010254 
	C252.067398,591.584167 253.448746,589.766174 255.264221,587.964478 
	C266.353088,588.638062 276.682526,593.001404 287.986786,590.810242 
	C284.512482,586.135193 280.640991,582.199463 276.748657,578.284546 
	C274.458832,575.981506 272.521301,573.092773 268.360077,574.734619 
	C267.578491,575.043091 266.041443,573.437012 264.948914,572.394958 
	C266.742676,569.489441 268.440521,566.903381 270.396149,564.138916 
	C271.913422,563.977966 273.593719,563.479614 274.358276,564.103455 
	C277.379150,566.568237 280.112854,569.384949 283.083099,572.379272 
	C289.976898,579.348267 296.740631,586.009094 303.757507,592.919312 
	C306.873779,589.483398 309.625244,586.449707 312.651886,583.246338 
	C314.478973,581.335693 316.030853,579.594666 317.582764,577.853638 
	C320.567688,578.382080 321.454956,580.091858 320.476044,582.908325 
	C317.551544,591.322327 306.720245,598.756897 298.157684,597.908508 
	C295.363129,597.631592 292.549438,595.675232 289.920410,595.984070 
	C284.182251,596.658325 278.607208,598.639771 272.876221,599.471619 
	C254.510010,602.137390 236.151260,604.999634 217.696396,606.862549 
	C203.513687,608.294128 189.171646,609.148499 174.933014,608.825378 
	C141.042343,608.056458 107.342842,604.984863 74.258354,597.029419 
	C72.482224,596.602356 70.738258,596.032349 68.997025,595.473694 
	C68.225960,595.226440 67.499062,594.841431 66.712639,593.787659 
	C75.091904,591.047119 83.952751,592.287842 92.460564,590.878296 
	C101.462242,589.386841 110.479607,587.981689 119.508751,586.666809 
	C128.365509,585.376953 137.245712,584.248108 146.538101,583.404541 
	C145.408691,588.233337 141.821930,589.501160 137.562698,589.833740 
	C134.574677,590.067139 131.590820,590.403687 128.621613,590.813721 
	C125.686394,591.219055 122.771912,591.774658 119.848328,592.264343 
	C119.905670,592.911133 119.963013,593.557922 120.020363,594.204712 
	C157.370468,600.279602 194.735809,600.284119 232.196762,593.740845 
	C230.263382,592.176392 228.283951,591.373779 226.228058,591.034607 
	C219.168152,589.869934 212.012726,589.183655 205.034836,587.666138 
	C201.687057,586.937988 198.655701,584.754883 195.481049,583.230774 
z"/>
<path fill="#FAFBFD" opacity="1.000000" stroke="none" 
	d="
M483.319031,461.104919 
	C476.762756,466.726837 473.540649,473.362427 473.705780,481.844788 
	C473.971069,495.474884 473.776917,509.113892 473.776917,523.014282 
	C466.129517,523.014282 458.703888,523.014282 451.054443,523.014282 
	C451.054443,494.187347 451.054443,465.592163 451.054443,436.559204 
	C457.929535,436.559204 464.676758,436.559204 471.945129,436.559204 
	C472.410736,440.427521 472.895813,444.457794 473.486328,449.363892 
	C483.319580,439.332764 493.772766,432.330200 508.784149,435.387329 
	C507.701172,442.786652 506.634735,450.072876 505.521759,457.677124 
	C497.691437,456.661835 490.306030,456.647003 483.319031,461.104919 
z"/>
<path fill="#FAFBFD" opacity="1.000000" stroke="none" 
	d="
M317.465149,577.567749 
	C316.030853,579.594666 314.478973,581.335693 312.356476,583.025146 
	C306.887115,578.301086 301.988342,573.628662 296.933838,568.659424 
	C286.808990,558.607422 276.839905,548.852234 266.772339,538.776306 
	C253.805130,525.834961 240.998611,513.149780 228.016678,500.646790 
	C225.321716,498.051239 221.976135,496.131226 218.729263,493.618134 
	C218.335953,492.420776 218.143784,491.505157 217.804306,489.887787 
	C220.804489,491.018127 223.235123,491.904572 225.644241,492.846100 
	C255.420166,504.483521 285.192993,516.128967 314.966583,527.772339 
	C316.391998,528.568115 317.817383,529.363892 319.907898,530.530945 
	C308.719238,536.335449 298.054382,541.868225 287.016632,547.594482 
	C297.297638,557.657349 307.322601,567.469604 317.465149,577.567749 
z"/>
<path fill="#26C1F1" opacity="1.000000" stroke="none" 
	d="
M843.385498,477.633636 
	C844.201904,476.692078 845.384460,475.375916 846.777466,475.091980 
	C865.287659,471.318298 883.827332,467.689484 902.771301,463.993103 
	C903.352966,475.074280 903.575256,486.186371 903.676575,497.299561 
	C903.757996,506.234161 903.692993,515.170105 903.692993,524.648560 
	C891.827087,524.648560 880.588318,524.747253 869.359558,524.458496 
	C868.474609,524.435730 866.948669,521.729370 866.923218,520.249512 
	C866.714478,508.120300 866.800537,495.986145 866.770813,483.853546 
	C866.766418,482.068848 866.623962,480.284485 866.511963,477.738892 
	C858.702820,477.738892 851.276184,477.738892 843.385498,477.633636 
z"/>
<path fill="#FAFBFD" opacity="1.000000" stroke="none" 
	d="
M543.971558,456.000458 
	C543.970093,478.606567 543.970093,500.712830 543.970093,523.007324 
	C536.251648,523.007324 528.987000,523.007324 521.465149,523.007324 
	C521.465149,494.188965 521.465149,465.633423 521.465149,436.669617 
	C528.946838,436.669617 536.141907,436.669617 543.972961,436.669617 
	C543.972961,442.973846 543.972961,449.237213 543.971558,456.000458 
z"/>
<path fill="#FAFBFD" opacity="1.000000" stroke="none" 
	d="
M195.170609,583.113098 
	C198.655701,584.754883 201.687057,586.937988 205.034836,587.666138 
	C212.012726,589.183655 219.168152,589.869934 226.228058,591.034607 
	C228.283951,591.373779 230.263382,592.176392 232.196762,593.740845 
	C194.735809,600.284119 157.370468,600.279602 120.020363,594.204712 
	C119.963013,593.557922 119.905670,592.911133 119.848328,592.264343 
	C122.771912,591.774658 125.686394,591.219055 128.621613,590.813721 
	C131.590820,590.403687 134.574677,590.067139 137.562698,589.833740 
	C141.821930,589.501160 145.408691,588.233337 146.957886,583.407043 
	C147.371490,580.671997 147.787781,578.290344 148.732315,575.490845 
	C154.039963,575.278381 158.839874,575.272156 163.594467,575.733459 
	C173.436478,576.688110 183.254364,577.891296 193.082169,578.992310 
	C193.674835,580.326660 194.267502,581.661072 195.170609,583.113098 
z"/>
<path fill="#23BDF0" opacity="1.000000" stroke="none" 
	d="
M775.344482,492.376953 
	C783.563416,490.356598 791.684143,488.758148 799.825806,487.274567 
	C802.918579,486.710999 806.059509,486.411743 809.621094,485.993408 
	C810.155640,497.610474 810.199402,509.226929 810.374695,520.841370 
	C810.416931,523.639404 809.283203,524.700989 806.561035,524.670654 
	C796.599915,524.559753 786.637878,524.542236 776.249756,524.100708 
	C775.712280,523.434814 775.545532,523.196716 775.323120,522.997620 
	C775.300293,512.946594 775.277466,502.895599 775.344482,492.376953 
z"/>
<path fill="#092875" opacity="1.000000" stroke="none" 
	d="
M314.863098,527.461304 
	C285.192993,516.128967 255.420166,504.483521 225.644241,492.846100 
	C223.235123,491.904572 220.804489,491.018127 217.804306,489.887787 
	C218.143784,491.505157 218.335953,492.420776 218.695053,493.998383 
	C219.194366,496.112244 219.526749,497.564117 219.446732,499.012878 
	C216.005707,498.689636 212.977097,498.369507 209.695343,497.789795 
	C208.254700,493.477600 207.065155,489.425629 205.880325,485.372223 
	C204.741089,481.474854 206.265198,479.063782 210.410950,477.992798 
	C212.660828,478.603058 214.550003,479.140167 216.793457,479.717285 
	C218.082870,480.095703 219.119232,480.275543 219.937347,480.797485 
	C227.179596,485.417389 234.202179,485.873871 240.969788,480.324829 
	C240.738861,485.518738 240.417053,490.308960 247.358521,491.129700 
	C250.230347,492.398041 252.715347,493.694000 255.331848,494.617188 
	C260.842621,496.561615 266.422302,498.310699 271.973694,500.139954 
	C273.411957,501.319214 274.700012,502.784485 276.312836,503.631195 
	C286.721619,509.096039 297.314606,514.222046 307.584473,519.931763 
	C310.433350,521.515625 312.392365,524.700073 314.863098,527.461304 
z"/>
<path fill="#167FCA" opacity="1.000000" stroke="none" 
	d="
M297.919861,475.977417 
	C296.374878,477.473938 294.829926,478.970428 292.729797,480.650543 
	C288.070251,478.567627 283.965881,476.301117 279.457733,473.993347 
	C278.266663,473.761169 277.479370,473.570221 276.843018,473.237732 
	C277.230133,472.951843 277.474579,472.823151 277.974335,472.629517 
	C277.804199,472.066254 277.387024,471.583618 276.582458,471.051270 
	C275.157684,470.950195 274.120300,470.898865 272.996124,470.523621 
	C269.640076,467.492615 266.370819,464.785553 263.006653,461.714844 
	C262.588715,455.623596 257.090332,454.553375 253.946014,450.960632 
	C253.666016,449.098907 253.626923,447.539795 253.042679,446.222443 
	C248.229523,435.369232 241.462234,425.885498 233.708084,416.870239 
	C229.766220,412.287354 227.719330,406.074493 225.190292,400.450531 
	C229.053406,399.958618 232.542038,399.614655 236.043732,399.619385 
	C241.542526,408.586853 247.041687,417.197113 252.509735,425.827087 
	C256.845764,432.670471 260.270477,440.337402 265.652832,446.216919 
	C274.888062,456.305084 285.323273,465.296509 295.300934,474.699219 
	C295.975952,475.335358 297.037903,475.560913 297.919861,475.977417 
z"/>
<path fill="#188ED3" opacity="1.000000" stroke="none" 
	d="
M298.151672,475.731476 
	C297.037903,475.560913 295.975952,475.335358 295.300934,474.699219 
	C285.323273,465.296509 274.888062,456.305084 265.652832,446.216919 
	C260.270477,440.337402 256.845764,432.670471 252.509735,425.827087 
	C247.041687,417.197113 241.542526,408.586853 236.423553,399.555573 
	C238.222702,398.809784 239.655060,398.476532 241.453659,398.105652 
	C242.552338,398.000641 243.284775,397.933289 244.416992,397.911316 
	C245.885986,398.031219 246.955185,398.105743 248.041840,398.529846 
	C249.187881,400.881348 250.195663,402.963562 251.464767,404.872040 
	C259.626862,417.146301 267.267059,429.828369 276.238464,441.483734 
	C282.864319,450.091888 291.157379,457.439362 298.931885,465.121552 
	C300.449890,466.621552 302.998871,467.078186 305.072357,468.016052 
	C302.842743,470.505890 300.613098,472.995697 298.151672,475.731476 
z"/>
<path fill="#1FB3E6" opacity="1.000000" stroke="none" 
	d="
M305.663208,438.966248 
	C305.554810,446.068268 305.446442,453.170258 304.958344,460.382660 
	C303.727234,458.787445 303.179626,456.821381 301.976135,455.417725 
	C292.947510,444.887238 283.196625,434.914062 274.873810,423.861359 
	C269.022705,416.091095 262.765625,407.893402 263.374084,396.949829 
	C268.488342,396.211212 273.252258,395.663757 278.007935,395.548279 
	C278.566681,399.191284 278.226532,402.989227 279.858246,405.511536 
	C286.829529,416.288025 294.333466,426.723358 301.803467,437.168427 
	C302.522400,438.173676 304.350159,438.385895 305.663208,438.966248 
z"/>
<path fill="#1B9FDC" opacity="1.000000" stroke="none" 
	d="
M263.023712,397.141052 
	C262.765625,407.893402 269.022705,416.091095 274.873810,423.861359 
	C283.196625,434.914062 292.947510,444.887238 301.976135,455.417725 
	C303.179626,456.821381 303.727234,458.787445 304.814819,460.763733 
	C305.081604,463.070648 305.112183,465.106873 305.107574,467.579590 
	C302.998871,467.078186 300.449890,466.621552 298.931885,465.121552 
	C291.157379,457.439362 282.864319,450.091888 276.238464,441.483734 
	C267.267059,429.828369 259.626862,417.146301 251.464767,404.872040 
	C250.195663,402.963562 249.187881,400.881348 248.377441,398.477600 
	C249.489975,397.762360 250.284363,397.448975 251.533295,397.094543 
	C255.666473,397.082642 259.345093,397.111847 263.023712,397.141052 
z"/>
<path fill="#B9F5FC" opacity="1.000000" stroke="none" 
	d="
M193.108643,578.595093 
	C183.254364,577.891296 173.436478,576.688110 163.594467,575.733459 
	C158.839874,575.272156 154.039963,575.278381 148.818207,575.088013 
	C148.375839,571.477112 148.375839,567.851257 148.375839,563.619873 
	C162.401535,562.897461 176.083878,562.192749 189.784210,561.487061 
	C190.962097,567.361145 192.048615,572.779480 193.108643,578.595093 
z"/>
<path fill="#FBFCFD" opacity="1.000000" stroke="none" 
	d="
M520.398987,418.276550 
	C517.716370,411.890747 518.714417,406.512054 523.538208,402.052277 
	C527.420044,398.463379 533.837769,397.807312 538.963257,400.344940 
	C543.982239,402.829865 546.120056,407.100494 546.047607,412.532135 
	C545.972595,418.156708 542.118164,423.019012 536.612732,424.675568 
	C530.442627,426.532074 524.947937,424.450287 520.398987,418.276550 
z"/>
<path fill="#DAE3F0" opacity="1.000000" stroke="none" 
	d="
M388.019165,580.276978 
	C387.468170,582.597107 386.980469,584.512512 386.517120,586.332275 
	C381.584717,588.328735 379.772156,585.961121 379.041809,581.613098 
	C378.441345,578.038208 377.544983,574.513123 375.724670,570.844299 
	C374.576965,576.073914 373.429260,581.303528 372.255432,586.652344 
	C370.180420,586.652344 368.396271,586.652344 366.039459,586.652344 
	C364.009521,577.920898 361.957275,569.093567 359.893219,560.215271 
	C363.579132,558.651123 365.366394,559.627869 366.006531,563.372131 
	C366.690338,567.371887 367.783630,571.301575 369.738678,575.218323 
	C370.997864,570.177246 372.257080,565.136108 373.565460,559.898132 
	C375.360687,559.898132 376.972015,559.898132 378.847626,559.898132 
	C380.136261,565.310059 381.423798,570.717407 382.711304,576.124756 
	C383.052185,576.124084 383.393066,576.123352 383.733948,576.122681 
	C384.765015,571.909851 386.038696,567.737549 386.751556,563.471558 
	C387.338593,559.958801 389.047729,559.110718 392.780334,560.007629 
	C391.188293,566.739441 389.635345,573.305908 388.019165,580.276978 
z"/>
<path fill="#D0DBEB" opacity="1.000000" stroke="none" 
	d="
M817.277466,571.028748 
	C817.277039,567.072144 817.277039,563.607056 817.277039,560.199768 
	C821.541321,558.588745 823.911804,559.626770 825.037659,563.777710 
	C825.894836,566.938049 827.220093,569.971558 828.662415,573.961304 
	C829.976562,570.188782 831.234192,567.308777 831.966492,564.300903 
	C833.001770,560.049561 835.331970,558.563782 839.822998,560.038452 
	C839.822998,568.664368 839.822998,577.411621 839.822998,586.589783 
	C838.536499,586.678284 837.152161,586.773499 835.336914,586.898376 
	C835.336914,581.915161 835.336914,577.301819 835.336914,572.688416 
	C834.953918,572.600159 834.570862,572.511963 834.187866,572.423706 
	C833.392883,574.950989 832.757019,577.545959 831.725281,579.972595 
	C831.308899,580.952026 829.999634,582.217041 829.145264,582.181580 
	C828.006714,582.134338 826.398743,581.199341 825.906128,580.196777 
	C824.693054,577.727722 824.001892,575.002319 822.027039,572.424011 
	C822.027039,576.051758 821.901489,579.685120 822.063904,583.305603 
	C822.212402,586.615173 820.869385,587.492126 817.277832,586.186340 
	C817.277832,581.434387 817.277832,576.477295 817.277466,571.028748 
z"/>
<path fill="#09479B" opacity="1.000000" stroke="none" 
	d="
M263.101593,462.078491 
	C266.370819,464.785553 269.640076,467.492615 272.755005,470.810730 
	C270.518097,478.564911 268.351776,485.686157 266.473877,492.882690 
	C266.271790,493.657135 267.745544,494.868896 268.628937,496.208191 
	C269.886627,497.187012 270.957306,497.835449 272.027954,498.483887 
	C272.020508,498.850800 272.013031,499.217712 271.989624,499.862305 
	C266.422302,498.310699 260.842621,496.561615 255.331848,494.617188 
	C252.715347,493.694000 250.230347,492.398041 247.404358,490.790527 
	C248.810730,488.307648 250.331085,486.128448 252.220505,484.338898 
	C256.425446,480.356232 259.326172,476.069672 257.161652,469.686432 
	C259.257721,466.959167 261.179657,464.518829 263.101593,462.078491 
z"/>
<path fill="#26C1F1" opacity="1.000000" stroke="none" 
	d="
M305.735718,438.506287 
	C304.350159,438.385895 302.522400,438.173676 301.803467,437.168427 
	C294.333466,426.723358 286.829529,416.288025 279.858246,405.511536 
	C278.226532,402.989227 278.566681,399.191284 278.404846,395.465302 
	C282.211395,394.327087 285.612732,393.703766 288.848022,393.421021 
	C288.681519,395.674683 288.007599,397.943665 288.797791,399.438995 
	C292.141846,405.767212 295.714142,412.002014 299.653870,417.973541 
	C301.034851,420.066681 303.710022,421.305969 305.794220,422.935150 
	C305.798859,427.972198 305.803528,433.009277 305.735718,438.506287 
z"/>
<path fill="#DAE3F0" opacity="1.000000" stroke="none" 
	d="
M538.283203,566.588623 
	C539.718445,569.581299 541.004272,572.225220 542.290039,574.869202 
	C542.607605,574.848572 542.925171,574.827942 543.242676,574.807312 
	C543.479187,569.850891 543.715637,564.894409 543.961670,559.737915 
	C545.404114,559.737915 546.662537,559.737915 548.183472,559.737915 
	C548.183472,568.692322 548.183472,577.472717 548.183472,586.275635 
	C543.065979,588.760193 541.907654,584.841553 540.344910,581.606750 
	C538.844482,578.501038 537.353455,575.390808 534.770874,572.381104 
	C534.770874,577.002563 534.770874,581.624023 534.770874,586.514160 
	C532.757629,586.514160 531.525269,586.514160 530.018921,586.514160 
	C530.018921,577.575684 530.018921,568.808716 530.018921,560.087830 
	C536.288025,557.730164 536.243591,563.219727 538.283203,566.588623 
z"/>
<path fill="#DAE3F0" opacity="1.000000" stroke="none" 
	d="
M606.721313,576.320068 
	C605.926331,574.703064 605.288574,573.442688 604.650818,572.182312 
	C604.184448,572.242493 603.718018,572.302734 603.251648,572.362915 
	C603.251648,576.080566 603.334473,579.800720 603.225525,583.515137 
	C603.137878,586.501892 603.034851,586.498840 599.128052,586.467407 
	C599.128052,577.711792 599.128052,568.951660 599.128052,560.215942 
	C602.836243,558.562439 604.676697,560.225647 606.028442,563.481201 
	C607.647278,567.380005 609.580811,571.148254 611.377991,574.973022 
	C611.793579,574.912476 612.209106,574.851929 612.624695,574.791382 
	C612.624695,570.899963 612.768738,567.001465 612.580444,563.119202 
	C612.421814,559.849915 613.635925,558.839355 616.981567,560.022034 
	C616.981567,568.698975 616.981567,577.470642 616.981567,586.389404 
	C613.380859,587.813293 611.118591,586.703857 609.819153,583.014771 
	C609.048950,580.828064 607.872375,578.784607 606.721313,576.320068 
z"/>
<path fill="#092875" opacity="1.000000" stroke="none" 
	d="
M244.012817,576.996643 
	C242.584625,578.090942 240.981812,579.023560 239.776917,580.324707 
	C238.552780,581.646545 237.721161,583.331848 236.364258,584.928467 
	C233.383987,576.767639 230.824249,568.513855 228.078720,560.322388 
	C227.461029,558.479431 226.194580,556.854004 225.019974,554.809509 
	C225.049530,553.302734 225.285904,552.114929 225.828888,550.350220 
	C228.402222,546.853577 230.668930,543.933716 233.135483,541.320923 
	C235.765213,549.145508 238.195099,556.662964 240.706024,564.554626 
	C241.862305,568.951416 242.937561,572.973999 244.012817,576.996643 
z"/>
<path fill="#D0DBEB" opacity="1.000000" stroke="none" 
	d="
M887.908325,580.796753 
	C887.822571,582.910889 887.738281,584.554565 887.649475,586.285034 
	C884.102112,587.731628 882.104919,586.741577 880.705933,583.269653 
	C879.074097,579.219421 876.912598,575.382568 873.936890,571.688538 
	C873.936890,575.593018 873.785522,579.505188 873.982422,583.399780 
	C874.155762,586.828857 872.634094,587.407898 869.545105,586.430176 
	C869.545105,577.698120 869.545105,568.945984 869.545105,560.128784 
	C873.159790,558.524902 875.009766,559.974182 876.374207,563.298218 
	C877.991516,567.237976 880.032227,571.003967 882.801025,574.699829 
	C882.801025,569.892273 882.801025,565.084778 882.801025,559.850098 
	C884.693359,559.751648 886.067383,559.680115 887.909790,559.584229 
	C887.909790,566.785156 887.909790,573.555725 887.908325,580.796753 
z"/>
<path fill="#37DAF6" opacity="1.000000" stroke="none" 
	d="
M305.853577,422.475403 
	C303.710022,421.305969 301.034851,420.066681 299.653870,417.973541 
	C295.714142,412.002014 292.141846,405.767212 288.797791,399.438995 
	C288.007599,397.943665 288.681519,395.674683 289.213989,393.310974 
	C291.483978,392.530823 293.221924,392.201324 294.959839,391.871826 
	C304.081940,391.936005 306.063782,393.927185 306.025848,403.029938 
	C305.999451,409.358551 305.951355,415.687073 305.853577,422.475403 
z"/>
<path fill="#DAE3F0" opacity="1.000000" stroke="none" 
	d="
M486.925629,559.552002 
	C491.430725,559.536682 495.807007,559.408142 497.603394,563.958130 
	C499.305573,568.269592 498.780090,572.506531 494.440521,575.627563 
	C496.013824,579.326721 497.548706,582.935425 499.084717,586.546814 
	C494.447540,588.207886 493.243622,585.178955 491.645569,582.056274 
	C490.473755,579.766418 490.855591,575.595276 485.722900,576.288269 
	C485.722900,579.728516 485.722900,583.154541 485.722900,586.734131 
	C483.854675,586.734131 482.568176,586.734131 480.907959,586.734131 
	C480.907959,577.811584 480.907959,569.059814 480.907959,559.546875 
	C482.679016,559.546875 484.583344,559.546875 486.925629,559.552002 
M485.945099,571.049866 
	C488.037140,570.866333 490.330139,571.120300 492.127441,570.294983 
	C492.902374,569.939148 493.367279,566.464539 492.727203,565.946716 
	C491.061981,564.599548 488.707062,564.104919 485.793121,562.935364 
	C485.793121,566.249146 485.793121,568.206360 485.945099,571.049866 
z"/>
<path fill="#DAE3F0" opacity="1.000000" stroke="none" 
	d="
M429.867554,586.861206 
	C427.283386,586.860962 425.151001,586.860962 422.708008,586.860962 
	C422.708008,577.793274 422.708008,569.071289 422.708008,559.589111 
	C425.687683,559.589111 428.727814,559.078857 431.494019,559.730774 
	C434.331970,560.399658 438.067444,561.551147 439.269012,563.692688 
	C440.527191,565.935120 439.238983,569.606201 439.095734,572.096741 
	C439.439636,575.812805 440.646088,579.390320 439.845825,582.441589 
	C438.675720,586.902832 434.225281,586.878723 429.867554,586.861206 
M427.586121,581.848389 
	C429.927124,581.722717 432.343597,581.871338 434.552032,581.263855 
	C435.056946,581.125061 435.448029,577.373230 434.852081,577.015442 
	C432.857880,575.818115 430.392761,575.405273 427.439880,574.483337 
	C427.439880,577.506287 427.439880,579.273438 427.586121,581.848389 
M430.421143,570.802612 
	C433.391907,570.778076 435.901459,569.373108 434.525177,566.426880 
	C433.725555,564.715210 430.439697,564.164917 428.272583,563.092102 
	C427.703461,563.661316 427.134338,564.230591 426.565216,564.799866 
	C427.579681,566.800598 428.594116,568.801392 430.421143,570.802612 
z"/>
<path fill="#D0DBEB" opacity="1.000000" stroke="none" 
	d="
M635.205383,586.629639 
	C631.661011,586.715576 628.525024,586.715576 625.071106,586.715576 
	C625.071106,577.682739 625.071106,568.818909 625.071106,559.968994 
	C634.856201,558.063171 641.107483,560.037415 642.074463,566.188354 
	C643.800964,577.169617 643.554199,584.877563 635.205383,586.629639 
M629.773254,567.676697 
	C629.773254,572.464050 629.773254,577.251404 629.773254,583.765442 
	C632.922424,582.045959 636.458069,581.226074 636.770630,579.731873 
	C637.631836,575.615784 637.529419,571.164062 636.950439,566.963379 
	C636.779663,565.724487 633.818115,564.706726 631.975952,564.008972 
	C631.634583,563.879700 630.528687,565.768921 629.773254,567.676697 
z"/>
<path fill="#D0DBEB" opacity="1.000000" stroke="none" 
	d="
M775.189575,586.671143 
	C770.724426,585.347107 769.026672,582.391052 768.971191,578.314026 
	C768.921387,574.657288 768.779724,570.989319 768.991272,567.344482 
	C769.284546,562.291992 772.199463,559.567505 777.295044,559.169617 
	C782.370605,558.773315 786.419983,560.974243 787.032837,565.651550 
	C787.692627,570.687439 787.697510,575.961365 786.969055,580.983643 
	C786.257751,585.886658 782.371094,587.462769 775.189575,586.671143 
M782.626160,569.104431 
	C782.339905,566.273132 781.646790,563.391663 778.098816,563.915283 
	C776.586121,564.138428 774.368042,566.032776 774.162292,567.418762 
	C773.606934,571.160217 773.540222,575.106262 774.157532,578.825378 
	C774.407898,580.333191 776.815247,582.236023 778.468018,582.491455 
	C779.559204,582.660095 781.841797,580.401306 782.199890,578.898132 
	C782.878845,576.047729 782.558472,572.959351 782.626160,569.104431 
z"/>
<path fill="#DAE3F0" opacity="1.000000" stroke="none" 
	d="
M520.881592,562.158569 
	C524.636780,568.520081 523.677856,575.109192 522.560974,581.375854 
	C521.763245,585.852051 517.598816,587.331909 513.203308,587.075989 
	C509.008484,586.831787 505.484924,585.067322 504.935486,580.607605 
	C504.351532,575.867859 504.000641,570.928711 504.684967,566.242676 
	C505.774536,558.781433 513.539673,556.843689 520.881592,562.158569 
M518.142334,574.381226 
	C518.056763,571.895935 518.405823,569.281433 517.719971,566.974670 
	C517.319458,565.627747 515.294128,563.973877 513.945679,563.924072 
	C512.630310,563.875488 510.189117,565.588257 510.078461,566.709167 
	C509.642517,571.123291 509.702789,575.630249 510.119293,580.051819 
	C510.214996,581.067688 512.444702,582.572083 513.714233,582.594238 
	C514.989197,582.616516 516.768738,581.340759 517.453552,580.136902 
	C518.203430,578.818665 517.953491,576.931641 518.142334,574.381226 
z"/>
<path fill="#D0DBEB" opacity="1.000000" stroke="none" 
	d="
M677.808960,575.761902 
	C677.311584,585.619995 673.565674,587.897339 660.374390,586.531128 
	C660.374390,577.703186 660.374390,568.827209 660.374390,559.269653 
	C663.892395,559.441589 667.356628,559.335388 670.728088,559.844177 
	C675.108093,560.505249 677.246155,563.633850 677.702148,567.829285 
	C677.970459,570.297852 677.790649,572.815063 677.808960,575.761902 
M671.730286,565.854370 
	C669.786133,565.028320 667.842041,564.202271 665.423462,563.174622 
	C665.423462,570.284302 665.423462,576.295532 665.423462,582.298218 
	C671.557922,582.275635 672.627319,581.418762 672.736450,575.938538 
	C672.798401,572.829346 672.360229,569.710144 671.730286,565.854370 
z"/>
<path fill="#D0DBEB" opacity="1.000000" stroke="none" 
	d="
M733.707520,568.061890 
	C735.563965,569.327515 737.372559,570.633789 739.262390,570.764282 
	C742.177246,570.965515 743.266174,571.796692 742.096497,574.905701 
	C739.543701,575.090393 736.939026,575.278809 734.086731,575.485229 
	C734.086731,577.756470 734.086731,579.853577 734.086731,582.453491 
	C737.268860,582.453491 740.343201,582.453491 743.731506,582.453491 
	C743.731506,584.140503 743.731506,585.328857 743.731506,586.604858 
	C738.786682,586.604858 734.031067,586.604858 728.974731,586.604858 
	C728.974731,577.592224 728.974731,568.833313 728.974731,559.412170 
	C733.318054,559.412170 737.573181,559.226868 741.788757,559.553406 
	C742.741821,559.627258 743.557007,561.481384 744.012390,562.017578 
	C740.967773,566.397339 734.042175,559.500122 733.707520,568.061890 
z"/>
<path fill="#D0DBEB" opacity="1.000000" stroke="none" 
	d="
M847.342285,582.687073 
	C847.338684,574.898376 847.338684,567.575989 847.338684,559.562744 
	C851.910706,559.562744 856.324585,559.467957 860.725952,559.659546 
	C861.428894,559.690063 862.075989,561.003906 862.748901,561.724487 
	C861.996033,562.383301 861.293579,563.525574 860.480896,563.610168 
	C858.054626,563.862915 855.585266,563.700989 852.844482,563.700989 
	C852.844482,566.261963 852.844482,568.187866 852.844482,570.606567 
	C855.439636,570.772461 858.006165,570.936462 861.072510,571.132507 
	C861.242188,578.210266 855.204956,573.455261 852.677490,576.262634 
	C852.677490,577.589355 852.677490,579.648254 852.677490,582.347290 
	C855.800171,582.490845 859.033447,582.639465 862.398132,582.794067 
	C863.274902,585.280701 863.317078,586.994324 859.881287,586.844910 
	C856.889038,586.714722 853.868225,586.653503 850.891418,586.916748 
	C847.858337,587.184814 847.041077,585.807373 847.342285,582.687073 
z"/>
<path fill="#D0DBEB" opacity="1.000000" stroke="none" 
	d="
M399.336731,572.014221 
	C399.336365,567.726318 399.336365,563.932556 399.336365,559.815308 
	C404.710388,559.815308 409.627686,559.815308 414.537750,559.815308 
	C414.835327,563.227234 414.835327,563.227234 405.011719,564.226440 
	C405.011719,566.226746 405.011719,568.283081 405.008606,570.333618 
	C407.779266,570.882812 410.567841,571.382263 413.295410,572.110229 
	C413.489807,572.162109 413.236908,573.890015 413.185059,574.985229 
	C410.310669,575.119934 407.683167,575.243103 404.761292,575.380005 
	C404.761292,577.674072 404.761292,579.758301 404.761292,582.366028 
	C408.172974,582.366028 411.408966,582.366028 414.812500,582.366028 
	C415.343536,585.100464 415.896301,587.063904 412.274475,586.904602 
	C408.296661,586.729614 404.305176,586.864685 399.337097,586.864685 
	C399.337097,581.981323 399.337097,577.244873 399.336731,572.014221 
z"/>
<path fill="#D0DBEB" opacity="1.000000" stroke="none" 
	d="
M692.849487,563.856628 
	C686.871521,563.965820 690.317688,567.827087 689.157837,570.466309 
	C692.309692,570.673767 694.891846,570.843750 697.745850,571.031616 
	C697.745850,572.300110 697.745850,573.538635 697.745850,574.972412 
	C694.954773,575.156189 692.361511,575.326965 689.520996,575.514038 
	C689.520996,577.900085 689.520996,579.955078 689.520996,582.503296 
	C692.901611,582.503296 695.997803,582.503296 699.000366,582.503296 
	C699.889282,587.310425 696.431213,588.128113 684.546875,586.288330 
	C684.546875,577.605408 684.546875,568.855530 684.546875,559.714478 
	C689.440735,559.714478 694.334900,559.714478 699.221741,559.714478 
	C699.790955,563.835266 699.790955,563.835266 692.849487,563.856628 
z"/>
<path fill="#D0DBEB" opacity="1.000000" stroke="none" 
	d="
M591.727722,560.276794 
	C591.008240,561.684204 590.249756,563.364441 589.187988,563.584961 
	C586.988708,564.041809 584.628296,563.722778 582.058350,563.722778 
	C582.058350,566.276550 582.058350,568.330627 582.058350,570.353760 
	C590.274170,571.718994 590.274170,571.718994 590.403503,575.017700 
	C587.653748,575.017700 584.913696,575.017700 581.927368,575.017700 
	C581.927368,577.710632 581.927368,579.931335 581.927368,582.486572 
	C585.375488,582.486572 588.477539,582.486572 591.652100,582.486572 
	C592.599426,585.521240 592.364624,587.145569 588.778931,586.923218 
	C584.979187,586.687622 581.153442,586.870300 576.898315,586.870300 
	C576.898315,577.782471 576.898315,568.922363 576.898315,559.888733 
	C581.767395,559.888733 586.659363,559.888733 591.727722,560.276794 
z"/>
<path fill="#D0DBEB" opacity="1.000000" stroke="none" 
	d="
M704.387329,561.955444 
	C705.165100,560.882446 706.130920,559.573425 706.974670,559.647888 
	C707.899902,559.729370 709.207825,560.942383 709.491211,561.912842 
	C710.933594,566.852356 712.098083,571.872925 714.228333,577.075073 
	C715.439453,572.411133 716.906189,567.794067 717.774658,563.067200 
	C718.383972,559.751038 719.918030,558.924377 723.638672,559.987671 
	C721.470703,568.376831 719.465088,576.854126 716.920776,585.166626 
	C716.562622,586.336609 713.571594,586.700745 711.235596,587.672363 
	C708.842285,578.638367 706.681946,570.483765 704.387329,561.955444 
z"/>
<path fill="#D0DBEB" opacity="1.000000" stroke="none" 
	d="
M799.095825,583.999023 
	C797.921204,585.435974 796.757202,586.439087 795.593201,587.442261 
	C795.197021,587.148865 794.800781,586.855469 794.404602,586.562134 
	C794.404602,577.814148 794.404602,569.066162 794.404602,559.496887 
	C797.309875,559.496887 800.396423,559.316833 803.454285,559.536560 
	C808.841248,559.923767 811.627014,563.060120 811.591736,568.333679 
	C811.558044,573.381287 808.910217,576.264282 803.710938,576.860229 
	C802.396423,577.010864 801.069092,577.048706 799.106506,577.181885 
	C799.106506,579.362122 799.106506,581.463684 799.095825,583.999023 
M805.265137,564.838623 
	C803.442383,564.392090 801.619690,563.945557 799.495178,563.425110 
	C799.495178,566.897156 799.495178,569.623840 799.495178,572.316406 
	C806.107056,572.852356 807.400696,571.350830 805.265137,564.838623 
z"/>
<path fill="#082B75" opacity="1.000000" stroke="none" 
	d="
M294.962219,391.502563 
	C293.221924,392.201324 291.483978,392.530823 289.380066,392.970398 
	C285.612732,393.703766 282.211395,394.327087 278.413116,395.033325 
	C273.252258,395.663757 268.488342,396.211212 263.374084,396.949829 
	C259.345093,397.111847 255.666473,397.082642 251.247314,396.837585 
	C248.343597,397.036438 246.180405,397.451172 244.017212,397.865906 
	C243.284775,397.933289 242.552338,398.000641 241.166321,397.845947 
	C238.303406,396.552582 234.258408,397.701569 234.997299,393.064087 
	C235.747330,392.964264 236.497375,392.864441 237.924988,393.111389 
	C241.093277,393.089783 243.583969,392.721405 246.074677,392.352997 
	C260.936920,391.137909 275.799164,389.922791 290.919952,388.358276 
	C292.440521,389.050323 293.702545,390.091797 294.962219,391.502563 
z"/>
<path fill="#37DAF6" opacity="1.000000" stroke="none" 
	d="
M295.931396,491.988220 
	C304.158600,486.060547 312.093842,480.341370 320.452179,474.317261 
	C321.863617,476.222229 323.086578,477.872772 324.746185,480.112671 
	C318.253845,484.275970 312.133606,488.165894 306.050903,492.113708 
	C302.146912,494.647491 298.307556,497.280640 294.421936,499.843109 
	C290.965454,502.122528 290.954956,502.106628 287.657532,498.041077 
	C290.325623,496.087494 292.982544,494.142151 295.931396,491.988220 
z"/>
<path fill="#D0DBEB" opacity="1.000000" stroke="none" 
	d="
M473.665039,560.362732 
	C472.981110,561.780701 472.260284,563.490662 471.229950,563.703674 
	C469.021851,564.160217 466.653870,563.843567 463.975861,563.843567 
	C463.975861,566.205383 463.975861,568.261963 463.975861,570.868042 
	C466.623901,570.868042 469.355927,570.868042 472.929352,570.868042 
	C472.519165,578.195312 466.329956,573.420471 463.660706,577.362244 
	C463.660706,579.430420 463.660706,582.996216 463.660706,586.743042 
	C461.746735,586.743042 460.460358,586.743042 458.731140,586.743042 
	C458.731140,577.789368 458.731140,568.944580 458.731140,559.254578 
	C463.729889,559.499023 468.608887,559.737610 473.665039,560.362732 
z"/>
<path fill="#D0DBEB" opacity="1.000000" stroke="none" 
	d="
M907.272095,559.532959 
	C908.715393,560.394409 909.744751,561.246277 910.774170,562.098083 
	C910.514038,562.521729 910.253906,562.945312 909.993774,563.368896 
	C908.251038,563.603394 906.508301,563.837891 904.211731,564.146912 
	C904.211731,571.518982 904.211731,578.882874 904.211731,586.588196 
	C902.299683,586.588196 900.951355,586.588196 899.036865,586.588196 
	C899.036865,579.045044 899.036865,571.648804 899.036865,564.631836 
	C896.490967,563.002869 891.263550,565.704956 892.962646,559.523438 
	C897.641357,559.523438 902.249817,559.523438 907.272095,559.532959 
z"/>
<path fill="#37DAF6" opacity="1.000000" stroke="none" 
	d="
M319.041107,507.803650 
	C314.826385,508.407440 311.061493,509.195312 307.265778,509.394135 
	C305.377106,509.493042 303.431915,508.511963 301.512268,508.019409 
	C301.562500,507.329712 301.612732,506.640015 301.662964,505.950317 
	C313.020142,503.623260 324.377289,501.296234 336.063080,498.901825 
	C336.520538,501.089172 336.882599,502.820404 337.360657,505.106384 
	C331.185638,506.017426 325.331940,506.881073 319.041107,507.803650 
z"/>
<path fill="#D0DBEB" opacity="1.000000" stroke="none" 
	d="
M559.915771,572.362610 
	C559.917236,569.443054 559.917236,566.964355 559.917236,564.107727 
	C557.914490,563.949036 556.155029,563.809692 554.168457,563.652283 
	C552.634949,560.618713 553.394958,559.174316 557.051941,559.322083 
	C560.712891,559.470032 564.386475,559.584900 568.044312,559.445740 
	C571.326782,559.320740 571.731201,560.789673 570.659058,563.671265 
	C568.975159,563.778870 567.210571,563.891663 565.060547,564.029053 
	C565.060547,571.443481 565.060547,578.736328 565.060547,586.434814 
	C563.346069,586.625854 561.975403,586.778564 559.914307,587.008240 
	C559.914307,582.011292 559.914307,577.407349 559.915771,572.362610 
z"/>
<path fill="#D0DBEB" opacity="1.000000" stroke="none" 
	d="
M756.093994,581.814941 
	C759.040161,582.417358 761.681335,582.636963 764.723206,582.889893 
	C764.812317,584.031921 764.905396,585.224182 765.017456,586.659912 
	C760.253174,586.659912 755.804688,586.659912 750.983276,586.659912 
	C750.983276,577.726196 750.983276,568.846863 750.983276,559.807373 
	C752.433167,559.807373 753.829468,559.807373 755.788879,559.807373 
	C755.788879,567.217224 755.788879,574.324646 756.093994,581.814941 
z"/>
<path fill="#1171C2" opacity="1.000000" stroke="none" 
	d="
M279.861511,474.034576 
	C283.965881,476.301117 288.070251,478.567627 292.501282,480.888733 
	C286.393402,486.543060 279.958862,492.142822 273.219299,497.411957 
	C275.230011,489.399078 277.545746,481.716827 279.861511,474.034576 
z"/>
<path fill="#26C1F1" opacity="1.000000" stroke="none" 
	d="
M279.457703,473.993347 
	C277.545746,481.716827 275.230011,489.399078 272.873169,497.450195 
	C272.696014,497.927124 272.559906,498.035278 272.225891,498.313660 
	C270.957306,497.835449 269.886627,497.187012 268.798859,495.856842 
	C269.765472,492.176636 270.666199,489.147736 271.752655,486.186981 
	C273.328735,481.891937 275.039032,477.646088 276.692047,473.379272 
	C277.479370,473.570221 278.266663,473.761169 279.457703,473.993347 
z"/>
<path fill="#26C1F1" opacity="1.000000" stroke="none" 
	d="
M903.438110,400.657166 
	C903.210022,400.609070 903.140259,400.324768 903.177979,399.799377 
	C903.437256,399.819885 903.540894,400.107452 903.438110,400.657166 
z"/>
<path fill="#1B9FDC" opacity="1.000000" stroke="none" 
	d="
M810.438477,479.101166 
	C810.361755,478.945984 810.450134,478.604858 810.783325,478.140472 
	C810.908569,478.326935 810.767090,478.626251 810.438477,479.101166 
z"/>
<path fill="#1B9FDC" opacity="1.000000" stroke="none" 
	d="
M775.299927,523.238525 
	C775.545532,523.196716 775.712280,523.434814 775.876526,523.925659 
	C775.580444,524.049500 775.362793,523.829529 775.299927,523.238525 
z"/>
<path fill="#0A2270" opacity="1.000000" stroke="none" 
	d="
M234.549683,393.000366 
	C234.258408,397.701569 238.303406,396.552582 240.800079,397.883636 
	C239.655060,398.476532 238.222702,398.809784 236.410507,399.206848 
	C232.542038,399.614655 229.053406,399.958618 224.739731,400.475769 
	C213.293213,401.448517 202.671738,402.248047 191.580902,403.006866 
	C183.081772,403.351929 175.052002,403.737701 166.577942,404.099182 
	C160.095505,404.397339 154.057373,404.719788 147.549835,405.028748 
	C131.956177,405.349915 116.832443,405.710754 101.707390,406.004242 
	C96.713425,406.101166 91.715752,405.988190 86.720367,406.034943 
	C78.792404,406.109131 75.051186,409.764404 75.041046,417.642975 
	C74.999245,450.115601 75.000252,482.588287 75.016472,515.060974 
	C75.020103,522.321472 78.374245,525.891479 85.621162,525.915222 
	C90.419746,525.930969 95.217255,525.130066 100.020477,525.061401 
	C129.132050,524.645386 158.245834,524.382507 187.357269,523.958191 
	C195.490356,523.839722 203.615936,523.219177 211.749146,523.086731 
	C215.489517,523.025818 216.384399,521.765625 215.329208,518.199829 
	C213.357147,511.535828 211.723129,504.771759 209.948486,498.049347 
	C212.977097,498.369507 216.005707,498.689636 219.627289,499.342804 
	C220.613190,501.123138 221.006104,502.570435 220.948212,504.016144 
	C218.705963,504.729584 215.674255,505.143707 215.410858,506.229401 
	C215.005539,507.900238 215.957901,511.109619 217.284454,511.776672 
	C222.327499,514.312683 223.248123,518.222351 223.142578,523.307739 
	C223.062653,527.158081 224.234909,530.817627 229.735001,530.063477 
	C230.267059,531.216003 230.635666,532.123352 230.973816,533.352783 
	C230.967499,534.103516 230.991623,534.532043 231.036255,535.114502 
	C231.105011,535.471497 231.188354,535.659058 231.531982,536.154053 
	C231.836212,536.992737 231.915237,537.508484 232.015686,538.161621 
	C232.082657,538.479736 232.154602,538.649292 232.472290,539.136169 
	C232.772980,539.981079 232.854324,540.497498 232.935669,541.013855 
	C230.668930,543.933716 228.402222,546.853577 225.824005,549.984619 
	C223.210953,543.735840 220.909393,537.275757 218.166290,530.568359 
	C217.489456,530.238770 217.276199,530.281128 217.084976,530.447998 
	C199.797195,531.252197 182.510513,532.080872 165.221390,532.855103 
	C134.791000,534.217834 104.358757,535.539490 73.928085,536.896057 
	C66.234520,537.238953 63.920986,535.109192 63.926193,527.579163 
	C63.953381,488.284546 63.974525,448.989899 64.004784,409.695282 
	C64.013176,398.795990 65.538353,397.590027 76.358521,397.363647 
	C119.631393,396.458313 162.901184,395.396606 206.169556,394.292358 
	C215.485855,394.054596 224.791504,393.399475 234.549683,393.000366 
z"/>
<path fill="#0A2270" opacity="1.000000" stroke="none" 
	d="
M245.625473,392.290527 
	C243.583969,392.721405 241.093277,393.089783 238.295471,393.204926 
	C240.384323,392.710480 242.780304,392.469269 245.625473,392.290527 
z"/>
<path fill="#092875" opacity="1.000000" stroke="none" 
	d="
M217.290619,530.551453 
	C217.276199,530.281128 217.489456,530.238770 217.818329,530.388916 
	C217.911911,530.456970 217.496246,530.654907 217.290619,530.551453 
z"/>
<path fill="#8EEFFC" opacity="1.000000" stroke="none" 
	d="
M233.135498,541.320923 
	C232.854324,540.497498 232.772980,539.981079 232.536591,538.987915 
	C232.349487,538.271729 232.220398,538.109436 231.994247,538.024231 
	C231.915237,537.508484 231.836212,536.992737 231.575806,535.989868 
	C231.361511,535.256958 231.235275,535.076233 231.015732,534.960632 
	C230.991623,534.532043 230.967499,534.103516 231.256317,533.137085 
	C233.040207,532.249390 234.639206,531.337585 235.961777,531.638916 
	C246.294724,533.993652 256.574585,536.581299 266.870819,539.097107 
	C276.839905,548.852234 286.808990,558.607422 296.523743,568.677551 
	C291.491730,568.553162 286.747650,568.258789 282.953033,572.071167 
	C280.112854,569.384949 277.379150,566.568237 274.358276,564.103455 
	C273.593719,563.479614 271.913422,563.977966 270.238953,563.794678 
	C267.937256,559.266052 264.083679,558.808350 260.281616,559.530701 
	C253.673431,560.785950 247.171478,562.600464 240.624985,564.180481 
	C238.195099,556.662964 235.765213,549.145508 233.135498,541.320923 
z"/>
<path fill="#72E8FA" opacity="1.000000" stroke="none" 
	d="
M240.706024,564.554626 
	C247.171478,562.600464 253.673431,560.785950 260.281616,559.530701 
	C264.083679,558.808350 267.937256,559.266052 269.981201,563.973022 
	C268.440521,566.903381 266.742676,569.489441 264.661560,572.586731 
	C261.128845,578.047974 257.979462,582.998047 254.830078,587.948120 
	C253.448746,589.766174 252.067398,591.584167 250.224091,594.010254 
	C248.235382,588.137634 246.420517,582.778442 244.309235,577.207947 
	C242.937561,572.973999 241.862305,568.951416 240.706024,564.554626 
z"/>
<path fill="#07368C" opacity="1.000000" stroke="none" 
	d="
M255.264221,587.964478 
	C257.979462,582.998047 261.128845,578.047974 264.565613,572.906128 
	C266.041443,573.437012 267.578491,575.043091 268.360077,574.734619 
	C272.521301,573.092773 274.458832,575.981506 276.748657,578.284546 
	C280.640991,582.199463 284.512482,586.135193 287.986786,590.810242 
	C276.682526,593.001404 266.353088,588.638062 255.264221,587.964478 
z"/>
<path fill="#72E8FA" opacity="1.000000" stroke="none" 
	d="
M283.083099,572.379272 
	C286.747650,568.258789 291.491730,568.553162 296.679443,568.974365 
	C301.988342,573.628662 306.887115,578.301086 312.081299,583.194763 
	C309.625244,586.449707 306.873779,589.483398 303.757507,592.919312 
	C296.740631,586.009094 289.976898,579.348267 283.083099,572.379272 
z"/>
<path fill="#B9F5FC" opacity="1.000000" stroke="none" 
	d="
M266.772339,538.776306 
	C256.574585,536.581299 246.294724,533.993652 235.961777,531.638916 
	C234.639206,531.337585 233.040207,532.249390 231.286774,532.814941 
	C230.635666,532.123352 230.267059,531.216003 229.692749,529.665039 
	C226.791046,520.686829 224.095032,512.352295 221.399017,504.017731 
	C221.006104,502.570435 220.613190,501.123138 220.039703,499.345886 
	C219.526749,497.564117 219.194366,496.112244 218.896194,494.280151 
	C221.976135,496.131226 225.321716,498.051239 228.016678,500.646790 
	C240.998611,513.149780 253.805130,525.834961 266.772339,538.776306 
z"/>
<path fill="#06368E" opacity="1.000000" stroke="none" 
	d="
M209.695343,497.789795 
	C211.723129,504.771759 213.357147,511.535828 215.329208,518.199829 
	C216.384399,521.765625 215.489517,523.025818 211.749146,523.086731 
	C203.615936,523.219177 195.490356,523.839722 187.357269,523.958191 
	C158.245834,524.382507 129.132050,524.645386 100.020477,525.061401 
	C95.217255,525.130066 90.419746,525.930969 85.621162,525.915222 
	C78.374245,525.891479 75.020103,522.321472 75.016472,515.060974 
	C75.000252,482.588287 74.999245,450.115601 75.041046,417.642975 
	C75.051186,409.764404 78.792404,406.109131 86.720367,406.034943 
	C91.715752,405.988190 96.713425,406.101166 101.707390,406.004242 
	C116.832443,405.710754 131.956177,405.349915 147.563385,405.383301 
	C148.278061,406.359406 148.337463,407.307404 148.767075,407.525177 
	C156.607620,411.500214 157.217285,419.535614 157.699020,426.389313 
	C158.611755,439.374695 168.533371,444.977478 176.399918,452.401001 
	C177.266708,453.218994 179.262436,452.840637 180.743851,453.385559 
	C178.161774,462.493896 175.570389,471.233856 172.763672,480.264069 
	C170.804825,485.504120 169.061310,490.453918 167.126373,495.074585 
	C165.015976,490.901123 162.378998,488.032623 157.545349,487.650360 
	C155.935791,485.465607 154.718246,483.300476 152.956406,481.756348 
	C150.506241,479.608978 147.648224,477.926941 145.129532,475.750946 
	C151.219452,470.441528 157.174835,465.462006 163.057007,460.397430 
	C165.993073,457.869507 168.226944,454.640503 166.497086,450.780701 
	C164.877914,447.167877 161.761703,444.806030 157.302673,444.647552 
	C156.296066,437.304504 151.356827,434.455780 145.696777,438.010406 
	C134.295212,445.170929 123.021896,452.541260 111.822098,460.014526 
	C107.607918,462.826569 107.317070,469.255859 111.559471,471.954651 
	C124.182922,479.985046 137.076111,487.591492 149.927185,495.769897 
	C153.359451,502.752991 159.352921,502.529236 165.391479,502.536377 
	C164.903519,509.792725 166.686569,511.657166 174.030441,512.353271 
	C176.251968,514.988464 178.145172,518.437134 180.773849,519.141602 
	C182.740494,519.668762 185.813019,516.865967 188.084930,515.140137 
	C189.322006,514.200439 190.251587,512.523621 190.747620,510.993713 
	C194.371536,499.816223 198.003723,488.636841 201.319901,477.365784 
	C203.465088,470.074646 204.975159,462.598389 207.006073,455.270538 
	C207.531433,453.374969 208.945984,451.725861 209.946259,450.370270 
	C209.604935,452.560028 209.297089,454.348755 208.929077,456.125031 
	C207.403244,463.489777 204.847031,470.902618 210.050247,477.919708 
	C206.265198,479.063782 204.741089,481.474854 205.880325,485.372223 
	C207.065155,489.425629 208.254700,493.477600 209.695343,497.789795 
z"/>
<path fill="#09479B" opacity="1.000000" stroke="none" 
	d="
M210.410950,477.992798 
	C204.847031,470.902618 207.403244,463.489777 208.929077,456.125031 
	C209.297089,454.348755 209.604935,452.560028 209.953873,449.952026 
	C210.309372,446.410767 210.651443,443.694458 211.299255,440.985321 
	C212.215027,440.980682 212.825058,440.968903 213.618011,441.276917 
	C215.554718,443.248352 217.102081,445.224518 219.098679,446.494354 
	C226.941284,451.482208 234.925400,456.247559 243.025513,461.198517 
	C240.084930,463.382080 237.731323,465.129791 235.047089,466.881165 
	C229.475876,470.084015 224.192947,473.217346 219.028931,476.535706 
	C217.941711,477.234375 217.291031,478.612366 216.439194,479.677307 
	C214.550003,479.140167 212.660828,478.603058 210.410950,477.992798 
z"/>
<path fill="#37DAF6" opacity="1.000000" stroke="none" 
	d="
M216.793457,479.717285 
	C217.291031,478.612366 217.941711,477.234375 219.028931,476.535706 
	C224.192947,473.217346 229.475876,470.084015 235.478638,466.905945 
	C242.263519,467.872925 245.477997,470.886627 245.865707,476.387817 
	C244.106522,477.724457 242.533447,478.798645 240.960388,479.872864 
	C234.202179,485.873871 227.179596,485.417389 219.937347,480.797485 
	C219.119232,480.275543 218.082870,480.095703 216.793457,479.717285 
z"/>
<path fill="#082B75" opacity="1.000000" stroke="none" 
	d="
M240.969788,480.324829 
	C242.533447,478.798645 244.106522,477.724457 246.203491,476.297119 
	C250.147446,473.953796 253.567490,471.963593 256.987518,469.973389 
	C259.326172,476.069672 256.425446,480.356232 252.220505,484.338898 
	C250.331085,486.128448 248.810730,488.307648 247.077103,490.649261 
	C240.417053,490.308960 240.738861,485.518738 240.969788,480.324829 
z"/>
<path fill="#1171C2" opacity="1.000000" stroke="none" 
	d="
M192.050262,403.047546 
	C202.671738,402.248047 213.293213,401.448517 224.365250,400.623718 
	C227.719330,406.074493 229.766220,412.287354 233.708084,416.870239 
	C241.462234,425.885498 248.229523,435.369232 253.042679,446.222443 
	C253.626923,447.539795 253.666016,449.098907 253.599579,450.840118 
	C244.391678,445.718658 235.477570,440.404205 226.726730,434.833282 
	C223.615509,432.852600 220.643921,431.599670 217.018936,432.675537 
	C215.322708,426.301056 210.922806,422.516968 204.939026,421.643738 
	C204.268509,416.663330 201.090073,415.265778 197.006378,414.610352 
	C195.348618,410.508087 193.699432,406.777832 192.050262,403.047546 
z"/>
<path fill="#45DEF9" opacity="1.000000" stroke="none" 
	d="
M217.031219,433.049713 
	C220.643921,431.599670 223.615509,432.852600 226.726730,434.833282 
	C235.477570,440.404205 244.391678,445.718658 253.587845,451.254761 
	C257.090332,454.553375 262.588715,455.623596 263.006653,461.714844 
	C261.179657,464.518829 259.257721,466.959167 257.161652,469.686462 
	C253.567490,471.963593 250.147446,473.953796 246.389618,476.034668 
	C245.477997,470.886627 242.263519,467.872925 235.809235,466.902344 
	C237.731323,465.129791 240.084930,463.382080 243.025513,461.198517 
	C234.925400,456.247559 226.941284,451.482208 219.098679,446.494354 
	C217.102081,445.224518 215.554718,443.248352 213.666092,440.926575 
	C213.423111,439.803253 213.314987,439.350037 213.382690,438.564453 
	C213.692429,437.493866 213.826340,436.755676 214.211426,435.840302 
	C215.318787,434.791962 216.175003,433.920837 217.031219,433.049713 
z"/>
<path fill="#082B75" opacity="1.000000" stroke="none" 
	d="
M276.843018,473.237762 
	C275.039032,477.646088 273.328735,481.891937 271.752655,486.186981 
	C270.666199,489.147736 269.765472,492.176636 268.611816,495.526489 
	C267.745544,494.868896 266.271790,493.657135 266.473877,492.882690 
	C268.351776,485.686157 270.518097,478.564911 272.841858,471.134674 
	C274.120300,470.898865 275.157684,470.950195 276.663574,471.259399 
	C277.330505,471.914886 277.528900,472.312500 277.727295,472.710144 
	C277.474579,472.823151 277.230133,472.951843 276.843018,473.237762 
z"/>
<path fill="#09479B" opacity="1.000000" stroke="none" 
	d="
M277.974335,472.629517 
	C277.528900,472.312500 277.330505,471.914886 277.050995,471.309082 
	C277.387024,471.583618 277.804199,472.066254 277.974335,472.629517 
z"/>
<path fill="#0A2270" opacity="1.000000" stroke="none" 
	d="
M244.416992,397.911316 
	C246.180405,397.451172 248.343597,397.036438 250.792755,396.878662 
	C250.284363,397.448975 249.489975,397.762360 248.360001,398.127991 
	C246.955185,398.105743 245.885986,398.031219 244.416992,397.911316 
z"/>
<path fill="#09479B" opacity="1.000000" stroke="none" 
	d="
M485.869110,570.606750 
	C485.793121,568.206360 485.793121,566.249146 485.793121,562.935364 
	C488.707062,564.104919 491.061981,564.599548 492.727203,565.946716 
	C493.367279,566.464539 492.902374,569.939148 492.127441,570.294983 
	C490.330139,571.120300 488.037140,570.866333 485.869110,570.606750 
z"/>
<path fill="#09479B" opacity="1.000000" stroke="none" 
	d="
M427.513000,581.444519 
	C427.439880,579.273438 427.439880,577.506287 427.439880,574.483337 
	C430.392761,575.405273 432.857880,575.818115 434.852081,577.015442 
	C435.448029,577.373230 435.056946,581.125061 434.552032,581.263855 
	C432.343597,581.871338 429.927124,581.722717 427.513000,581.444519 
z"/>
<path fill="#09479B" opacity="1.000000" stroke="none" 
	d="
M430.014862,570.802368 
	C428.594116,568.801392 427.579681,566.800598 426.565216,564.799866 
	C427.134338,564.230591 427.703461,563.661316 428.272583,563.092102 
	C430.439697,564.164917 433.725555,564.715210 434.525177,566.426880 
	C435.901459,569.373108 433.391907,570.778076 430.014862,570.802368 
z"/>
<path fill="#074097" opacity="1.000000" stroke="none" 
	d="
M629.774475,567.201660 
	C630.528687,565.768921 631.634583,563.879700 631.975952,564.008972 
	C633.818115,564.706726 636.779663,565.724487 636.950439,566.963379 
	C637.529419,571.164062 637.631836,575.615784 636.770630,579.731873 
	C636.458069,581.226074 632.922424,582.045959 629.773254,583.765442 
	C629.773254,577.251404 629.773254,572.464050 629.774475,567.201660 
z"/>
<path fill="#09479B" opacity="1.000000" stroke="none" 
	d="
M782.639648,569.537109 
	C782.558472,572.959351 782.878845,576.047729 782.199890,578.898132 
	C781.841797,580.401306 779.559204,582.660095 778.468018,582.491455 
	C776.815247,582.236023 774.407898,580.333191 774.157532,578.825378 
	C773.540222,575.106262 773.606934,571.160217 774.162292,567.418762 
	C774.368042,566.032776 776.586121,564.138428 778.098816,563.915283 
	C781.646790,563.391663 782.339905,566.273132 782.639648,569.537109 
z"/>
<path fill="#074097" opacity="1.000000" stroke="none" 
	d="
M518.140808,574.836853 
	C517.953491,576.931641 518.203430,578.818665 517.453552,580.136902 
	C516.768738,581.340759 514.989197,582.616516 513.714233,582.594238 
	C512.444702,582.572083 510.214996,581.067688 510.119293,580.051819 
	C509.702789,575.630249 509.642517,571.123291 510.078461,566.709167 
	C510.189117,565.588257 512.630310,563.875488 513.945679,563.924072 
	C515.294128,563.973877 517.319458,565.627747 517.719971,566.974670 
	C518.405823,569.281433 518.056763,571.895935 518.140808,574.836853 
z"/>
<path fill="#074097" opacity="1.000000" stroke="none" 
	d="
M671.938843,566.224915 
	C672.360229,569.710144 672.798401,572.829346 672.736450,575.938538 
	C672.627319,581.418762 671.557922,582.275635 665.423462,582.298218 
	C665.423462,576.295532 665.423462,570.284302 665.423462,563.174622 
	C667.842041,564.202271 669.786133,565.028320 671.938843,566.224915 
z"/>
<path fill="#09479B" opacity="1.000000" stroke="none" 
	d="
M805.537231,565.132812 
	C807.400696,571.350830 806.107056,572.852356 799.495178,572.316406 
	C799.495178,569.623840 799.495178,566.897156 799.495178,563.425110 
	C801.619690,563.945557 803.442383,564.392090 805.537231,565.132812 
z"/>
<path fill="#074097" opacity="1.000000" stroke="none" 
	d="
M180.734558,453.017151 
	C179.262436,452.840637 177.266708,453.218994 176.399918,452.401001 
	C168.533371,444.977478 158.611755,439.374695 157.699020,426.389313 
	C157.217285,419.535614 156.607620,411.500214 148.767075,407.525177 
	C148.337463,407.307404 148.278061,406.359406 148.032776,405.396790 
	C154.057373,404.719788 160.095505,404.397339 166.587311,404.451996 
	C171.388565,412.624451 175.600143,420.500671 180.160233,428.169647 
	C181.680542,430.726501 184.093277,432.752655 186.089661,435.401855 
	C185.953018,436.780487 185.824783,437.778595 185.719360,438.838013 
	C185.742188,438.899323 185.865311,438.855164 185.609314,439.030792 
	C185.239380,439.805420 185.125458,440.404449 184.811508,441.305298 
	C183.319168,445.410492 182.026855,449.213837 180.734558,453.017151 
z"/>
<path fill="#09479B" opacity="1.000000" stroke="none" 
	d="
M186.098053,435.021393 
	C184.093277,432.752655 181.680542,430.726501 180.160233,428.169647 
	C175.600143,420.500671 171.388565,412.624451 167.031601,404.476288 
	C175.052002,403.737701 183.081772,403.351929 191.580902,403.006866 
	C193.699432,406.777832 195.348618,410.508087 196.654633,414.685852 
	C194.446487,417.237885 191.986679,419.065063 190.847549,421.508026 
	C188.839554,425.814392 187.637527,430.496552 186.098053,435.021393 
z"/>
<path fill="#092875" opacity="1.000000" stroke="none" 
	d="
M220.948212,504.016144 
	C224.095032,512.352295 226.791046,520.686829 229.529297,529.419861 
	C224.234909,530.817627 223.062653,527.158081 223.142578,523.307739 
	C223.248123,518.222351 222.327499,514.312683 217.284454,511.776672 
	C215.957901,511.109619 215.005539,507.900238 215.410858,506.229401 
	C215.674255,505.143707 218.705963,504.729584 220.948212,504.016144 
z"/>
<path fill="#092875" opacity="1.000000" stroke="none" 
	d="
M231.036255,535.114502 
	C231.235275,535.076233 231.361511,535.256958 231.350616,535.666931 
	C231.188354,535.659058 231.105011,535.471497 231.036255,535.114502 
z"/>
<path fill="#092875" opacity="1.000000" stroke="none" 
	d="
M232.015686,538.161621 
	C232.220398,538.109436 232.349487,538.271729 232.317230,538.659363 
	C232.154602,538.649292 232.082657,538.479736 232.015686,538.161621 
z"/>
<path fill="#26C1F1" opacity="1.000000" stroke="none" 
	d="
M144.964767,476.045746 
	C147.648224,477.926941 150.506241,479.608978 152.956406,481.756348 
	C154.718246,483.300476 155.935791,485.465607 157.433533,487.980591 
	C156.942535,493.119598 153.977692,494.888428 149.863876,495.363617 
	C137.076111,487.591492 124.182922,479.985046 111.559471,471.954651 
	C107.317070,469.255859 107.607918,462.826569 111.822098,460.014526 
	C123.021896,452.541260 134.295212,445.170929 145.696777,438.010406 
	C151.356827,434.455780 156.296066,437.304504 157.205582,444.967194 
	C157.123947,446.128143 157.074051,446.570068 156.764862,447.224335 
	C147.481094,453.583191 138.456619,459.729645 128.803879,466.304016 
	C133.130692,468.900665 137.062363,471.260162 141.238327,473.861572 
	C142.643326,474.750885 143.804047,475.398315 144.964767,476.045746 
z"/>
<path fill="#082B75" opacity="1.000000" stroke="none" 
	d="
M213.960266,436.017517 
	C213.826340,436.755676 213.692429,437.493866 213.105377,438.612305 
	C212.099350,439.654449 211.546448,440.316315 210.993530,440.978180 
	C210.651443,443.694458 210.309372,446.410767 209.959686,449.545288 
	C208.945984,451.725861 207.531433,453.374969 207.006073,455.270538 
	C204.975159,462.598389 203.465088,470.074646 201.319901,477.365784 
	C198.003723,488.636841 194.371536,499.816223 190.747620,510.993713 
	C190.251587,512.523621 189.322006,514.200439 188.084930,515.140137 
	C185.813019,516.865967 182.740494,519.668762 180.773849,519.141602 
	C178.145172,518.437134 176.251968,514.988464 174.335449,512.186157 
	C175.968750,510.305908 177.993805,509.186157 178.533127,507.570465 
	C181.005875,500.162506 183.062973,492.615784 185.468842,484.820282 
	C190.481705,469.023132 195.295059,453.524567 200.330917,437.737305 
	C201.964127,432.920502 203.374832,428.392365 205.163971,423.923340 
	C207.358566,426.027679 209.351242,427.946472 210.935028,430.158081 
	C212.201447,431.926483 212.970474,434.051025 213.960266,436.017517 
z"/>
<path fill="#37DAF6" opacity="1.000000" stroke="none" 
	d="
M200.108398,438.026001 
	C195.295059,453.524567 190.481705,469.023132 185.130325,484.642517 
	C180.721191,483.166840 176.850098,481.570343 172.979004,479.973816 
	C175.570389,471.233856 178.161774,462.493896 180.743835,453.385559 
	C182.026855,449.213837 183.319168,445.410492 185.023041,441.091187 
	C185.578186,440.001862 185.721741,439.428497 185.865295,438.855164 
	C185.865311,438.855164 185.742188,438.899323 186.152100,438.903076 
	C191.077484,438.613251 195.592941,438.319611 200.108398,438.026001 
z"/>
<path fill="#26C1F1" opacity="1.000000" stroke="none" 
	d="
M172.763687,480.264069 
	C176.850098,481.570343 180.721191,483.166840 184.930801,484.941101 
	C183.062973,492.615784 181.005875,500.162506 178.533127,507.570465 
	C177.993805,509.186157 175.968750,510.305908 174.322968,511.821228 
	C166.686569,511.657166 164.903519,509.792725 165.567444,502.239441 
	C166.283585,499.491180 166.800674,497.447418 167.317780,495.403687 
	C169.061310,490.453918 170.804825,485.504120 172.763687,480.264069 
z"/>
<path fill="#082B75" opacity="1.000000" stroke="none" 
	d="
M157.024155,447.011963 
	C157.074051,446.570068 157.123947,446.128143 157.270905,445.366608 
	C161.761703,444.806030 164.877914,447.167877 166.497086,450.780701 
	C168.226944,454.640503 165.993073,457.869507 163.057007,460.397430 
	C157.174835,465.462006 151.219452,470.441528 145.129532,475.750946 
	C143.804047,475.398315 142.643326,474.750885 141.314606,473.549957 
	C143.164902,471.127411 145.075775,469.122833 147.225235,467.419312 
	C150.954544,464.463684 155.100739,461.987183 158.586411,458.781586 
	C164.523300,453.321686 164.057404,450.904327 157.024155,447.011963 
z"/>
<path fill="#082B75" opacity="1.000000" stroke="none" 
	d="
M167.126373,495.074585 
	C166.800674,497.447418 166.283585,499.491180 165.590546,501.831848 
	C159.352921,502.529236 153.359451,502.752991 149.927185,495.769897 
	C153.977692,494.888428 156.942535,493.119598 157.582764,488.277222 
	C162.378998,488.032623 165.015976,490.901123 167.126373,495.074585 
z"/>
<path fill="#06368E" opacity="1.000000" stroke="none" 
	d="
M211.299255,440.985321 
	C211.546448,440.316315 212.099350,439.654449 212.929565,438.944702 
	C213.314987,439.350037 213.423111,439.803253 213.483154,440.606781 
	C212.825058,440.968903 212.215027,440.980682 211.299255,440.985321 
z"/>
<path fill="#45DEF9" opacity="1.000000" stroke="none" 
	d="
M200.330902,437.737305 
	C195.592941,438.319611 191.077484,438.613251 186.129288,438.841797 
	C185.824783,437.778595 185.953018,436.780487 186.089645,435.401855 
	C187.637527,430.496552 188.839554,425.814392 190.847549,421.508026 
	C191.986679,419.065063 194.446487,417.237885 196.663239,415.057861 
	C201.090073,415.265778 204.268509,416.663330 204.876343,421.951660 
	C204.863831,423.031647 204.824677,423.447968 204.785522,423.864258 
	C203.374832,428.392365 201.964127,432.920502 200.330902,437.737305 
z"/>
<path fill="#09479B" opacity="1.000000" stroke="none" 
	d="
M205.163971,423.923340 
	C204.824677,423.447968 204.863831,423.031647 204.965668,422.307434 
	C210.922806,422.516968 215.322708,426.301056 217.018936,432.675537 
	C216.175003,433.920837 215.318787,434.791962 214.211426,435.840302 
	C212.970474,434.051025 212.201447,431.926483 210.935028,430.158081 
	C209.351242,427.946472 207.358566,426.027679 205.163971,423.923340 
z"/>
<path fill="#45DEF9" opacity="1.000000" stroke="none" 
	d="
M185.609299,439.030792 
	C185.721741,439.428497 185.578186,440.001862 185.223083,440.789307 
	C185.125458,440.404449 185.239380,439.805420 185.609299,439.030792 
z"/>
<path fill="#0A2270" opacity="1.000000" stroke="none" 
	d="
M156.764862,447.224335 
	C164.057404,450.904327 164.523300,453.321686 158.586411,458.781586 
	C155.100739,461.987183 150.954544,464.463684 147.225235,467.419312 
	C145.075775,469.122833 143.164902,471.127411 141.070343,473.308044 
	C137.062363,471.260162 133.130692,468.900665 128.803879,466.304016 
	C138.456619,459.729645 147.481094,453.583191 156.764862,447.224335 
z"/>
</svg>